<?xml version="1.0" encoding="ISO8859-1"?>
<svg xmlns="http://www.w3.org/2000/svg" xmlns:xlink="http://www.w3.org/1999/xlink" width="288px" height="252px" viewBox="0 0 288 252" version="1.1" id="Fig:dens">
  <metadata xmlns:gridsvg="http://www.stat.auckland.ac.nz/~paul/R/gridSVG/">
    <gridsvg:generator name="gridSVG" version="1.7-2" time="2020-05-03 22:12:59"/>
    <gridsvg:argument name="name" value="arrayQualityMetrics report for eset_normaliz/dens.svg"/>
    <gridsvg:argument name="exportCoords" value="none"/>
    <gridsvg:argument name="exportMappings" value="none"/>
    <gridsvg:argument name="exportJS" value="none"/>
    <gridsvg:argument name="res" value="72"/>
    <gridsvg:argument name="prefix" value="Fig:dens"/>
    <gridsvg:argument name="addClasses" value="FALSE"/>
    <gridsvg:argument name="indent" value="TRUE"/>
    <gridsvg:argument name="htmlWrapper" value="FALSE"/>
    <gridsvg:argument name="usePaths" value="none"/>
    <gridsvg:argument name="uniqueNames" value="TRUE"/>
    <gridsvg:separator name="id.sep" value="."/>
    <gridsvg:separator name="gPath.sep" value="::"/>
    <gridsvg:separator name="vpPath.sep" value="::"/>
  </metadata>
  <g transform="translate(0, 252) scale(1, -1)">
    <g id="Fig:densgridSVG" fill="none" stroke="rgb(0,0,0)" stroke-dasharray="none" stroke-width="0.75" font-size="12" font-family="Helvetica, Arial, FreeSans, Liberation Sans, Nimbus Sans L, sans-serif" opacity="1" stroke-linecap="round" stroke-linejoin="round" stroke-miterlimit="10" stroke-opacity="1" fill-opacity="0" font-weight="normal" font-style="normal">
      <g id="Fig:densplot_01.background.1">
        <rect id="Fig:densplot_01.background.1.1" x="0" y="0" width="288" height="252" transform="" fill="none" stroke="none" stroke-opacity="0" fill-opacity="0"/>
      </g>
      <g id="Fig:densplot_01.toplevel.vp.1" font-size="12">
        <g id="Fig:densplot_01.ylab.vp.1">
          <g id="Fig:densplot_01.ylab.1">
            <g id="Fig:densplot_01.ylab.1.1" transform="translate(10.31, 138.09)" stroke-width="0.1">
              <g id="Fig:densplot_01.ylab.1.1.scale" transform="scale(1, -1)">
                <text x="0" y="0" id="Fig:densplot_01.ylab.1.1.text" transform="rotate(-90)" text-anchor="middle" opacity="1" stroke="rgb(0,0,0)" fill="rgb(0,0,0)" stroke-opacity="1" fill-opacity="1" font-size="12" font-weight="normal" font-style="normal">
                  <tspan id="Fig:densplot_01.ylab.1.1.tspan.1" dy="4.31" x="0">Density</tspan>
                </text>
              </g>
            </g>
          </g>
        </g>
        <g id="Fig:densplot_01.figure.vp.1"/>
        <defs>
          <clipPath id="Fig:densplot_01.panel.1.1.vp.1.clipPath">
            <rect x="44.8" y="42.19" width="231.2" height="191.81" fill="none" stroke="none"/>
          </clipPath>
        </defs>
        <g id="Fig:densplot_01.panel.1.1.vp.1" clip-path="url(#Fig:densplot_01.panel.1.1.vp.1.clipPath)"/>
        <g id="Fig:densplot_01.strip.1.1.off.vp.1"/>
        <g id="Fig:densplot_01.strip.left.1.1.off.vp.1">
          <g id="Fig:densplot_01.ticks.left.panel.1.1.1">
            <polyline id="Fig:densplot_01.ticks.left.panel.1.1.1.1" points="44.8,53.95 39.13,53.95" stroke="rgb(0,0,0)" opacity="1" stroke-dasharray="none" stroke-width="0.75" stroke-opacity="1" fill="none"/>
            <polyline id="Fig:densplot_01.ticks.left.panel.1.1.1.2" points="44.8,82.1 39.13,82.1" stroke="rgb(0,0,0)" opacity="1" stroke-dasharray="none" stroke-width="0.75" stroke-opacity="1" fill="none"/>
            <polyline id="Fig:densplot_01.ticks.left.panel.1.1.1.3" points="44.8,110.26 39.13,110.26" stroke="rgb(0,0,0)" opacity="1" stroke-dasharray="none" stroke-width="0.75" stroke-opacity="1" fill="none"/>
            <polyline id="Fig:densplot_01.ticks.left.panel.1.1.1.4" points="44.8,138.41 39.13,138.41" stroke="rgb(0,0,0)" opacity="1" stroke-dasharray="none" stroke-width="0.75" stroke-opacity="1" fill="none"/>
            <polyline id="Fig:densplot_01.ticks.left.panel.1.1.1.5" points="44.8,166.56 39.13,166.56" stroke="rgb(0,0,0)" opacity="1" stroke-dasharray="none" stroke-width="0.75" stroke-opacity="1" fill="none"/>
            <polyline id="Fig:densplot_01.ticks.left.panel.1.1.1.6" points="44.8,194.71 39.13,194.71" stroke="rgb(0,0,0)" opacity="1" stroke-dasharray="none" stroke-width="0.75" stroke-opacity="1" fill="none"/>
            <polyline id="Fig:densplot_01.ticks.left.panel.1.1.1.7" points="44.8,222.86 39.13,222.86" stroke="rgb(0,0,0)" opacity="1" stroke-dasharray="none" stroke-width="0.75" stroke-opacity="1" fill="none"/>
          </g>
          <g id="Fig:densplot_01.ticklabels.left.panel.1.1.1">
            <g id="Fig:densplot_01.ticklabels.left.panel.1.1.1.1" transform="translate(33.47, 53.95)" stroke-width="0.1">
              <g id="Fig:densplot_01.ticklabels.left.panel.1.1.1.1.scale" transform="scale(1, -1)">
                <text x="0" y="0" id="Fig:densplot_01.ticklabels.left.panel.1.1.1.1.text" transform="rotate(-90)" text-anchor="middle" stroke="rgb(0,0,0)" opacity="1" fill="rgb(0,0,0)" stroke-opacity="1" fill-opacity="1" font-size="9.6" font-weight="normal" font-style="normal">
                  <tspan id="Fig:densplot_01.ticklabels.left.panel.1.1.1.1.tspan.1" dy="0" x="0">0.00</tspan>
                </text>
              </g>
            </g>
            <g id="Fig:densplot_01.ticklabels.left.panel.1.1.1.2" transform="translate(33.47, 82.1)" stroke-width="0.1">
              <g id="Fig:densplot_01.ticklabels.left.panel.1.1.1.2.scale" transform="scale(1, -1)">
                <text x="0" y="0" id="Fig:densplot_01.ticklabels.left.panel.1.1.1.2.text" transform="rotate(-90)" text-anchor="middle" stroke="rgb(0,0,0)" opacity="1" fill="rgb(0,0,0)" stroke-opacity="1" fill-opacity="1" font-size="9.6" font-weight="normal" font-style="normal">
                  <tspan id="Fig:densplot_01.ticklabels.left.panel.1.1.1.2.tspan.1" dy="0" x="0">0.05</tspan>
                </text>
              </g>
            </g>
            <g id="Fig:densplot_01.ticklabels.left.panel.1.1.1.3" transform="translate(33.47, 110.26)" stroke-width="0.1">
              <g id="Fig:densplot_01.ticklabels.left.panel.1.1.1.3.scale" transform="scale(1, -1)">
                <text x="0" y="0" id="Fig:densplot_01.ticklabels.left.panel.1.1.1.3.text" transform="rotate(-90)" text-anchor="middle" stroke="rgb(0,0,0)" opacity="1" fill="rgb(0,0,0)" stroke-opacity="1" fill-opacity="1" font-size="9.6" font-weight="normal" font-style="normal">
                  <tspan id="Fig:densplot_01.ticklabels.left.panel.1.1.1.3.tspan.1" dy="0" x="0">0.10</tspan>
                </text>
              </g>
            </g>
            <g id="Fig:densplot_01.ticklabels.left.panel.1.1.1.4" transform="translate(33.47, 138.41)" stroke-width="0.1">
              <g id="Fig:densplot_01.ticklabels.left.panel.1.1.1.4.scale" transform="scale(1, -1)">
                <text x="0" y="0" id="Fig:densplot_01.ticklabels.left.panel.1.1.1.4.text" transform="rotate(-90)" text-anchor="middle" stroke="rgb(0,0,0)" opacity="1" fill="rgb(0,0,0)" stroke-opacity="1" fill-opacity="1" font-size="9.6" font-weight="normal" font-style="normal">
                  <tspan id="Fig:densplot_01.ticklabels.left.panel.1.1.1.4.tspan.1" dy="0" x="0">0.15</tspan>
                </text>
              </g>
            </g>
            <g id="Fig:densplot_01.ticklabels.left.panel.1.1.1.5" transform="translate(33.47, 166.56)" stroke-width="0.1">
              <g id="Fig:densplot_01.ticklabels.left.panel.1.1.1.5.scale" transform="scale(1, -1)">
                <text x="0" y="0" id="Fig:densplot_01.ticklabels.left.panel.1.1.1.5.text" transform="rotate(-90)" text-anchor="middle" stroke="rgb(0,0,0)" opacity="1" fill="rgb(0,0,0)" stroke-opacity="1" fill-opacity="1" font-size="9.6" font-weight="normal" font-style="normal">
                  <tspan id="Fig:densplot_01.ticklabels.left.panel.1.1.1.5.tspan.1" dy="0" x="0">0.20</tspan>
                </text>
              </g>
            </g>
            <g id="Fig:densplot_01.ticklabels.left.panel.1.1.1.6" transform="translate(33.47, 194.71)" stroke-width="0.1">
              <g id="Fig:densplot_01.ticklabels.left.panel.1.1.1.6.scale" transform="scale(1, -1)">
                <text x="0" y="0" id="Fig:densplot_01.ticklabels.left.panel.1.1.1.6.text" transform="rotate(-90)" text-anchor="middle" stroke="rgb(0,0,0)" opacity="1" fill="rgb(0,0,0)" stroke-opacity="1" fill-opacity="1" font-size="9.6" font-weight="normal" font-style="normal">
                  <tspan id="Fig:densplot_01.ticklabels.left.panel.1.1.1.6.tspan.1" dy="0" x="0">0.25</tspan>
                </text>
              </g>
            </g>
            <g id="Fig:densplot_01.ticklabels.left.panel.1.1.1.7" transform="translate(33.47, 222.86)" stroke-width="0.1">
              <g id="Fig:densplot_01.ticklabels.left.panel.1.1.1.7.scale" transform="scale(1, -1)">
                <text x="0" y="0" id="Fig:densplot_01.ticklabels.left.panel.1.1.1.7.text" transform="rotate(-90)" text-anchor="middle" stroke="rgb(0,0,0)" opacity="1" fill="rgb(0,0,0)" stroke-opacity="1" fill-opacity="1" font-size="9.6" font-weight="normal" font-style="normal">
                  <tspan id="Fig:densplot_01.ticklabels.left.panel.1.1.1.7.tspan.1" dy="0" x="0">0.30</tspan>
                </text>
              </g>
            </g>
          </g>
        </g>
        <g id="Fig:densplot_01.panel.1.1.off.vp.1">
          <g id="Fig:densplot_01.ticks.bottom.panel.1.1.1">
            <polyline id="Fig:densplot_01.ticks.bottom.panel.1.1.1.1" points="53.39,42.19 53.39,36.52" stroke="rgb(0,0,0)" opacity="1" stroke-dasharray="none" stroke-width="0.75" stroke-opacity="1" fill="none"/>
            <polyline id="Fig:densplot_01.ticks.bottom.panel.1.1.1.2" points="97.49,42.19 97.49,36.52" stroke="rgb(0,0,0)" opacity="1" stroke-dasharray="none" stroke-width="0.75" stroke-opacity="1" fill="none"/>
            <polyline id="Fig:densplot_01.ticks.bottom.panel.1.1.1.3" points="141.6,42.19 141.6,36.52" stroke="rgb(0,0,0)" opacity="1" stroke-dasharray="none" stroke-width="0.75" stroke-opacity="1" fill="none"/>
            <polyline id="Fig:densplot_01.ticks.bottom.panel.1.1.1.4" points="185.7,42.19 185.7,36.52" stroke="rgb(0,0,0)" opacity="1" stroke-dasharray="none" stroke-width="0.75" stroke-opacity="1" fill="none"/>
            <polyline id="Fig:densplot_01.ticks.bottom.panel.1.1.1.5" points="229.8,42.19 229.8,36.52" stroke="rgb(0,0,0)" opacity="1" stroke-dasharray="none" stroke-width="0.75" stroke-opacity="1" fill="none"/>
            <polyline id="Fig:densplot_01.ticks.bottom.panel.1.1.1.6" points="273.91,42.19 273.91,36.52" stroke="rgb(0,0,0)" opacity="1" stroke-dasharray="none" stroke-width="0.75" stroke-opacity="1" fill="none"/>
          </g>
          <g id="Fig:densplot_01.ticklabels.bottom.panel.1.1.1">
            <g id="Fig:densplot_01.ticklabels.bottom.panel.1.1.1.1" transform="translate(53.39, 30.85)" stroke-width="0.1">
              <g id="Fig:densplot_01.ticklabels.bottom.panel.1.1.1.1.scale" transform="scale(1, -1)">
                <text x="0" y="0" id="Fig:densplot_01.ticklabels.bottom.panel.1.1.1.1.text" text-anchor="middle" stroke="rgb(0,0,0)" opacity="1" fill="rgb(0,0,0)" stroke-opacity="1" fill-opacity="1" font-size="9.6" font-weight="normal" font-style="normal">
                  <tspan id="Fig:densplot_01.ticklabels.bottom.panel.1.1.1.1.tspan.1" dy="7.18" x="0">4</tspan>
                </text>
              </g>
            </g>
            <g id="Fig:densplot_01.ticklabels.bottom.panel.1.1.1.2" transform="translate(97.49, 30.85)" stroke-width="0.1">
              <g id="Fig:densplot_01.ticklabels.bottom.panel.1.1.1.2.scale" transform="scale(1, -1)">
                <text x="0" y="0" id="Fig:densplot_01.ticklabels.bottom.panel.1.1.1.2.text" text-anchor="middle" stroke="rgb(0,0,0)" opacity="1" fill="rgb(0,0,0)" stroke-opacity="1" fill-opacity="1" font-size="9.6" font-weight="normal" font-style="normal">
                  <tspan id="Fig:densplot_01.ticklabels.bottom.panel.1.1.1.2.tspan.1" dy="7.18" x="0">6</tspan>
                </text>
              </g>
            </g>
            <g id="Fig:densplot_01.ticklabels.bottom.panel.1.1.1.3" transform="translate(141.6, 30.85)" stroke-width="0.1">
              <g id="Fig:densplot_01.ticklabels.bottom.panel.1.1.1.3.scale" transform="scale(1, -1)">
                <text x="0" y="0" id="Fig:densplot_01.ticklabels.bottom.panel.1.1.1.3.text" text-anchor="middle" stroke="rgb(0,0,0)" opacity="1" fill="rgb(0,0,0)" stroke-opacity="1" fill-opacity="1" font-size="9.6" font-weight="normal" font-style="normal">
                  <tspan id="Fig:densplot_01.ticklabels.bottom.panel.1.1.1.3.tspan.1" dy="7.18" x="0">8</tspan>
                </text>
              </g>
            </g>
            <g id="Fig:densplot_01.ticklabels.bottom.panel.1.1.1.4" transform="translate(185.7, 30.85)" stroke-width="0.1">
              <g id="Fig:densplot_01.ticklabels.bottom.panel.1.1.1.4.scale" transform="scale(1, -1)">
                <text x="0" y="0" id="Fig:densplot_01.ticklabels.bottom.panel.1.1.1.4.text" text-anchor="middle" stroke="rgb(0,0,0)" opacity="1" fill="rgb(0,0,0)" stroke-opacity="1" fill-opacity="1" font-size="9.6" font-weight="normal" font-style="normal">
                  <tspan id="Fig:densplot_01.ticklabels.bottom.panel.1.1.1.4.tspan.1" dy="7.18" x="0">10</tspan>
                </text>
              </g>
            </g>
            <g id="Fig:densplot_01.ticklabels.bottom.panel.1.1.1.5" transform="translate(229.8, 30.85)" stroke-width="0.1">
              <g id="Fig:densplot_01.ticklabels.bottom.panel.1.1.1.5.scale" transform="scale(1, -1)">
                <text x="0" y="0" id="Fig:densplot_01.ticklabels.bottom.panel.1.1.1.5.text" text-anchor="middle" stroke="rgb(0,0,0)" opacity="1" fill="rgb(0,0,0)" stroke-opacity="1" fill-opacity="1" font-size="9.6" font-weight="normal" font-style="normal">
                  <tspan id="Fig:densplot_01.ticklabels.bottom.panel.1.1.1.5.tspan.1" dy="7.18" x="0">12</tspan>
                </text>
              </g>
            </g>
          </g>
        </g>
        <defs>
          <clipPath id="Fig:densplot_01.panel.1.1.vp.2.clipPath">
            <rect x="44.8" y="42.19" width="231.2" height="191.81" fill="none" stroke="none"/>
          </clipPath>
        </defs>
        <g id="Fig:densplot_01.panel.1.1.vp.2" clip-path="url(#Fig:densplot_01.panel.1.1.vp.2.clipPath)">
          <g id="Fig:densplot_01.xyplot.lines.group.1.panel.1.1.1">
            <polyline id="Fig:densplot_01.xyplot.lines.group.1.panel.1.1.1.1" points="62.58,54.31 62.97,54.4 63.36,54.52 63.75,54.66 64.14,54.84 64.53,55.07 64.92,55.34 65.31,55.66 65.7,56.04 66.09,56.49 66.48,57.04 66.87,57.69 67.26,58.45 67.65,59.32 68.03,60.33 68.42,61.49 68.81,62.85 69.2,64.39 69.59,66.13 69.98,68.07 70.37,70.23 70.76,72.67 71.15,75.38 71.54,78.34 71.93,81.57 72.32,85.07 72.71,88.83 73.1,92.92 73.49,97.28 73.88,101.88 74.27,106.72 74.66,111.77 75.05,117.03 75.44,122.48 75.83,128.07 76.22,133.75 76.61,139.5 77,145.27 77.39,151.04 77.78,156.73 78.17,162.31 78.55,167.75 78.94,173.01 79.33,178.06 79.72,182.82 80.11,187.26 80.5,191.39 80.89,195.18 81.28,198.63 81.67,201.72 82.06,204.35 82.45,206.61 82.84,208.49 83.23,210.03 83.62,211.21 84.01,212.06 84.4,212.52 84.79,212.71 85.18,212.64 85.57,212.34 85.96,211.83 86.35,211.11 86.74,210.23 87.13,209.22 87.52,208.12 87.91,206.94 88.3,205.7 88.69,204.42 89.07,203.11 89.46,201.81 89.85,200.51 90.24,199.22 90.63,197.96 91.02,196.73 91.41,195.54 91.8,194.38 92.19,193.25 92.58,192.15 92.97,191.09 93.36,190.06 93.75,189.05 94.14,188.06 94.53,187.09 94.92,186.14 95.31,185.2 95.7,184.26 96.09,183.32 96.48,182.39 96.87,181.45 97.26,180.52 97.65,179.57 98.04,178.62 98.43,177.66 98.82,176.7 99.21,175.72 99.59,174.74 99.98,173.76 100.37,172.77 100.76,171.77 101.15,170.78 101.54,169.78 101.93,168.78 102.32,167.79 102.71,166.8 103.1,165.81 103.49,164.83 103.88,163.86 104.27,162.89 104.66,161.94 105.05,161 105.44,160.06 105.83,159.14 106.22,158.23 106.61,157.33 107,156.44 107.39,155.57 107.78,154.71 108.17,153.86 108.56,153.02 108.95,152.2 109.34,151.39 109.72,150.6 110.11,149.82 110.5,149.05 110.89,148.3 111.28,147.56 111.67,146.85 112.06,146.15 112.45,145.48 112.84,144.82 113.23,144.19 113.62,143.58 114.01,143 114.4,142.44 114.79,141.91 115.18,141.4 115.57,140.93 115.96,140.49 116.35,140.07 116.74,139.68 117.13,139.32 117.52,138.98 117.91,138.67 118.3,138.38 118.69,138.11 119.08,137.86 119.47,137.63 119.86,137.42 120.24,137.21 120.63,137.02 121.02,136.84 121.41,136.66 121.8,136.49 122.19,136.32 122.58,136.15 122.97,135.98 123.36,135.81 123.75,135.64 124.14,135.46 124.53,135.29 124.92,135.11 125.31,134.94 125.7,134.76 126.09,134.59 126.48,134.41 126.87,134.25 127.26,134.08 127.65,133.93 128.04,133.78 128.43,133.64 128.82,133.52 129.21,133.41 129.6,133.31 129.99,133.23 130.38,133.17 130.76,133.12 131.15,133.1 131.54,133.09 131.93,133.1 132.32,133.13 132.71,133.18 133.1,133.25 133.49,133.33 133.88,133.43 134.27,133.54 134.66,133.67 135.05,133.81 135.44,133.96 135.83,134.11 136.22,134.28 136.61,134.45 137,134.62 137.39,134.79 137.78,134.96 138.17,135.13 138.56,135.3 138.95,135.46 139.34,135.62 139.73,135.77 140.12,135.91 140.51,136.03 140.9,136.15 141.28,136.26 141.67,136.35 142.06,136.43 142.45,136.49 142.84,136.54 143.23,136.58 143.62,136.6 144.01,136.61 144.4,136.6 144.79,136.58 145.18,136.55 145.57,136.5 145.96,136.44 146.35,136.37 146.74,136.28 147.13,136.19 147.52,136.09 147.91,135.97 148.3,135.85 148.69,135.73 149.08,135.59 149.47,135.46 149.86,135.31 150.25,135.16 150.64,135.01 151.03,134.86 151.42,134.7 151.8,134.54 152.19,134.37 152.58,134.21 152.97,134.04 153.36,133.87 153.75,133.7 154.14,133.52 154.53,133.35 154.92,133.17 155.31,132.99 155.7,132.81 156.09,132.63 156.48,132.45 156.87,132.26 157.26,132.08 157.65,131.89 158.04,131.71 158.43,131.52 158.82,131.34 159.21,131.16 159.6,130.98 159.99,130.8 160.38,130.62 160.77,130.45 161.16,130.28 161.55,130.12 161.94,129.95 162.32,129.79 162.71,129.64 163.1,129.49 163.49,129.34 163.88,129.19 164.27,129.05 164.66,128.91 165.05,128.77 165.44,128.63 165.83,128.48 166.22,128.34 166.61,128.2 167,128.06 167.39,127.91 167.78,127.76 168.17,127.6 168.56,127.44 168.95,127.27 169.34,127.1 169.73,126.92 170.12,126.73 170.51,126.53 170.9,126.33 171.29,126.12 171.68,125.9 172.07,125.66 172.45,125.43 172.84,125.18 173.23,124.92 173.62,124.66 174.01,124.39 174.4,124.1 174.79,123.82 175.18,123.52 175.57,123.22 175.96,122.91 176.35,122.59 176.74,122.27 177.13,121.95 177.52,121.62 177.91,121.28 178.3,120.94 178.69,120.59 179.08,120.24 179.47,119.89 179.86,119.53 180.25,119.17 180.64,118.8 181.03,118.43 181.42,118.06 181.81,117.68 182.2,117.29 182.59,116.9 182.97,116.5 183.36,116.1 183.75,115.7 184.14,115.28 184.53,114.86 184.92,114.44 185.31,114.01 185.7,113.57 186.09,113.13 186.48,112.68 186.87,112.23 187.26,111.77 187.65,111.31 188.04,110.84 188.43,110.37 188.82,109.9 189.21,109.42 189.6,108.94 189.99,108.47 190.38,107.99 190.77,107.51 191.16,107.03 191.55,106.55 191.94,106.07 192.33,105.59 192.72,105.12 193.11,104.64 193.49,104.17 193.88,103.71 194.27,103.24 194.66,102.78 195.05,102.33 195.44,101.87 195.83,101.42 196.22,100.98 196.61,100.54 197,100.11 197.39,99.68 197.78,99.25 198.17,98.83 198.56,98.42 198.95,98.01 199.34,97.6 199.73,97.2 200.12,96.8 200.51,96.41 200.9,96.03 201.29,95.64 201.68,95.26 202.07,94.88 202.46,94.51 202.85,94.14 203.24,93.77 203.63,93.4 204.01,93.03 204.4,92.67 204.79,92.3 205.18,91.94 205.57,91.58 205.96,91.22 206.35,90.86 206.74,90.5 207.13,90.15 207.52,89.8 207.91,89.44 208.3,89.1 208.69,88.75 209.08,88.41 209.47,88.07 209.86,87.74 210.25,87.41 210.64,87.09 211.03,86.77 211.42,86.45 211.81,86.15 212.2,85.85 212.59,85.55 212.98,85.26 213.37,84.98 213.76,84.7 214.15,84.43 214.53,84.17 214.92,83.91 215.31,83.65 215.7,83.4 216.09,83.16 216.48,82.92 216.87,82.68 217.26,82.45 217.65,82.22 218.04,81.99 218.43,81.77 218.82,81.54 219.21,81.32 219.6,81.09 219.99,80.87 220.38,80.65 220.77,80.42 221.16,80.19 221.55,79.96 221.94,79.73 222.33,79.5 222.72,79.26 223.11,79.01 223.5,78.77 223.89,78.52 224.28,78.26 224.67,78 225.05,77.73 225.44,77.46 225.83,77.18 226.22,76.9 226.61,76.61 227,76.32 227.39,76.03 227.78,75.73 228.17,75.42 228.56,75.12 228.95,74.81 229.34,74.5 229.73,74.19 230.12,73.88 230.51,73.57 230.9,73.26 231.29,72.95 231.68,72.65 232.07,72.34 232.46,72.04 232.85,71.74 233.24,71.45 233.63,71.16 234.02,70.87 234.41,70.59 234.8,70.31 235.18,70.03 235.57,69.76 235.96,69.48 236.35,69.21 236.74,68.94 237.13,68.67 237.52,68.4 237.91,68.13 238.3,67.86 238.69,67.58 239.08,67.3 239.47,67.01 239.86,66.72 240.25,66.42 240.64,66.11 241.03,65.79 241.42,65.46 241.81,65.12 242.2,64.78 242.59,64.42 242.98,64.05 243.37,63.68 243.76,63.29 244.15,62.9 244.54,62.5 244.93,62.1 245.32,61.69 245.7,61.28 246.09,60.87 246.48,60.46 246.87,60.06 247.26,59.65 247.65,59.26 248.04,58.88 248.43,58.5 248.82,58.14 249.21,57.79 249.6,57.46 249.99,57.14 250.38,56.84 250.77,56.55 251.16,56.29 251.55,56.04 251.94,55.81 252.33,55.6 252.72,55.4 253.11,55.23 253.5,55.06 253.89,54.92 254.28,54.79 254.67,54.67 255.06,54.57 255.45,54.48 255.84,54.4 256.22,54.33 256.61,54.27 257,54.22 257.39,54.17 257.78,54.14 258.17,54.1 258.56,54.08 258.95,54.05 259.34,54.03 259.73,54.02 260.12,54.01 260.51,53.99 260.9,53.99 261.29,53.98 261.68,53.97" stroke-dasharray="none" stroke="rgb(31,120,180)" stroke-width="0.75" opacity="1" stroke-opacity="1" fill="none"/>
          </g>
          <g id="Fig:densplot_01.xyplot.lines.group.2.panel.1.1.1">
            <polyline id="Fig:densplot_01.xyplot.lines.group.2.panel.1.1.1.1" points="59,54.16 59.4,54.22 59.79,54.29 60.19,54.38 60.59,54.5 60.98,54.64 61.38,54.82 61.77,55.02 62.17,55.28 62.57,55.58 62.96,55.95 63.36,56.39 63.76,56.9 64.15,57.51 64.55,58.2 64.95,59.02 65.34,59.98 65.74,61.07 66.13,62.31 66.53,63.7 66.93,65.27 67.32,67.03 67.72,69.02 68.12,71.2 68.51,73.59 68.91,76.2 69.3,79.01 69.7,82.08 70.1,85.37 70.49,88.87 70.89,92.56 71.29,96.42 71.68,100.46 72.08,104.67 72.48,109 72.87,113.43 73.27,117.91 73.66,122.44 74.06,126.97 74.46,131.47 74.85,135.9 75.25,140.22 75.65,144.42 76.04,148.46 76.44,152.32 76.84,155.9 77.23,159.25 77.63,162.35 78.02,165.17 78.42,167.72 78.82,169.98 79.21,171.88 79.61,173.5 80.01,174.85 80.4,175.93 80.8,176.75 81.19,177.32 81.59,177.62 81.99,177.74 82.38,177.67 82.78,177.46 83.18,177.1 83.57,176.63 83.97,176.06 84.37,175.43 84.76,174.75 85.16,174.05 85.55,173.33 85.95,172.61 86.35,171.92 86.74,171.25 87.14,170.63 87.54,170.04 87.93,169.5 88.33,169.01 88.73,168.59 89.12,168.21 89.52,167.89 89.91,167.62 90.31,167.4 90.71,167.23 91.1,167.1 91.5,167.01 91.9,166.95 92.29,166.92 92.69,166.92 93.09,166.94 93.48,166.98 93.88,167.04 94.27,167.11 94.67,167.18 95.07,167.27 95.46,167.35 95.86,167.44 96.26,167.53 96.65,167.62 97.05,167.7 97.44,167.78 97.84,167.85 98.24,167.92 98.63,167.97 99.03,168.02 99.43,168.05 99.82,168.07 100.22,168.07 100.62,168.06 101.01,168.03 101.41,167.98 101.8,167.91 102.2,167.82 102.6,167.7 102.99,167.55 103.39,167.38 103.79,167.19 104.18,166.97 104.58,166.72 104.98,166.44 105.37,166.13 105.77,165.79 106.16,165.43 106.56,165.04 106.96,164.62 107.35,164.18 107.75,163.72 108.15,163.24 108.54,162.75 108.94,162.24 109.33,161.71 109.73,161.18 110.13,160.64 110.52,160.09 110.92,159.55 111.32,159 111.71,158.46 112.11,157.92 112.51,157.39 112.9,156.87 113.3,156.35 113.69,155.85 114.09,155.36 114.49,154.88 114.88,154.42 115.28,153.96 115.68,153.52 116.07,153.09 116.47,152.67 116.87,152.25 117.26,151.85 117.66,151.45 118.05,151.06 118.45,150.67 118.85,150.28 119.24,149.89 119.64,149.5 120.04,149.11 120.43,148.71 120.83,148.31 121.22,147.9 121.62,147.48 122.02,147.06 122.41,146.62 122.81,146.18 123.21,145.73 123.6,145.27 124,144.8 124.4,144.33 124.79,143.85 125.19,143.37 125.58,142.89 125.98,142.41 126.38,141.93 126.77,141.46 127.17,141 127.57,140.55 127.96,140.12 128.36,139.7 128.76,139.31 129.15,138.93 129.55,138.58 129.94,138.26 130.34,137.96 130.74,137.7 131.13,137.47 131.53,137.26 131.93,137.09 132.32,136.95 132.72,136.84 133.12,136.76 133.51,136.72 133.91,136.7 134.3,136.7 134.7,136.74 135.1,136.8 135.49,136.88 135.89,136.97 136.29,137.09 136.68,137.22 137.08,137.36 137.47,137.51 137.87,137.67 138.27,137.83 138.66,137.99 139.06,138.15 139.46,138.32 139.85,138.47 140.25,138.62 140.65,138.77 141.04,138.9 141.44,139.02 141.83,139.13 142.23,139.23 142.63,139.31 143.02,139.37 143.42,139.42 143.82,139.46 144.21,139.48 144.61,139.48 145.01,139.46 145.4,139.43 145.8,139.38 146.19,139.32 146.59,139.25 146.99,139.16 147.38,139.06 147.78,138.95 148.18,138.83 148.57,138.71 148.97,138.57 149.36,138.43 149.76,138.29 150.16,138.14 150.55,137.99 150.95,137.84 151.35,137.69 151.74,137.53 152.14,137.38 152.54,137.23 152.93,137.07 153.33,136.91 153.72,136.76 154.12,136.6 154.52,136.43 154.91,136.27 155.31,136.1 155.71,135.93 156.1,135.75 156.5,135.56 156.9,135.37 157.29,135.18 157.69,134.98 158.08,134.77 158.48,134.55 158.88,134.33 159.27,134.11 159.67,133.88 160.07,133.65 160.46,133.42 160.86,133.18 161.25,132.95 161.65,132.72 162.05,132.49 162.44,132.26 162.84,132.03 163.24,131.81 163.63,131.59 164.03,131.37 164.43,131.16 164.82,130.95 165.22,130.75 165.61,130.54 166.01,130.34 166.41,130.14 166.8,129.93 167.2,129.72 167.6,129.51 167.99,129.28 168.39,129.05 168.79,128.82 169.18,128.57 169.58,128.3 169.97,128.03 170.37,127.74 170.77,127.43 171.16,127.11 171.56,126.78 171.96,126.43 172.35,126.07 172.75,125.7 173.15,125.31 173.54,124.91 173.94,124.51 174.33,124.1 174.73,123.68 175.13,123.25 175.52,122.83 175.92,122.4 176.32,121.98 176.71,121.56 177.11,121.14 177.5,120.73 177.9,120.32 178.3,119.92 178.69,119.53 179.09,119.14 179.49,118.76 179.88,118.4 180.28,118.03 180.68,117.68 181.07,117.32 181.47,116.98 181.86,116.64 182.26,116.3 182.66,115.96 183.05,115.62 183.45,115.28 183.85,114.94 184.24,114.59 184.64,114.24 185.04,113.88 185.43,113.52 185.83,113.14 186.22,112.76 186.62,112.37 187.02,111.96 187.41,111.55 187.81,111.12 188.21,110.69 188.6,110.24 189,109.78 189.39,109.32 189.79,108.84 190.19,108.35 190.58,107.86 190.98,107.36 191.38,106.85 191.77,106.34 192.17,105.82 192.57,105.3 192.96,104.78 193.36,104.26 193.75,103.74 194.15,103.22 194.55,102.71 194.94,102.2 195.34,101.69 195.74,101.19 196.13,100.69 196.53,100.2 196.93,99.72 197.32,99.25 197.72,98.78 198.11,98.32 198.51,97.87 198.91,97.43 199.3,96.99 199.7,96.56 200.1,96.13 200.49,95.71 200.89,95.3 201.28,94.89 201.68,94.48 202.08,94.08 202.47,93.68 202.87,93.28 203.27,92.89 203.66,92.5 204.06,92.11 204.46,91.73 204.85,91.35 205.25,90.97 205.64,90.6 206.04,90.24 206.44,89.88 206.83,89.52 207.23,89.18 207.63,88.84 208.02,88.51 208.42,88.18 208.82,87.86 209.21,87.56 209.61,87.26 210,86.97 210.4,86.68 210.8,86.4 211.19,86.13 211.59,85.87 211.99,85.61 212.38,85.36 212.78,85.11 213.18,84.87 213.57,84.63 213.97,84.39 214.36,84.15 214.76,83.9 215.16,83.66 215.55,83.42 215.95,83.17 216.35,82.92 216.74,82.67 217.14,82.41 217.53,82.15 217.93,81.88 218.33,81.61 218.72,81.33 219.12,81.04 219.52,80.75 219.91,80.46 220.31,80.16 220.71,79.85 221.1,79.54 221.5,79.23 221.89,78.91 222.29,78.59 222.69,78.27 223.08,77.94 223.48,77.61 223.88,77.28 224.27,76.96 224.67,76.63 225.07,76.3 225.46,75.97 225.86,75.64 226.25,75.32 226.65,75 227.05,74.68 227.44,74.37 227.84,74.06 228.24,73.75 228.63,73.45 229.03,73.15 229.42,72.87 229.82,72.58 230.22,72.3 230.61,72.03 231.01,71.77 231.41,71.51 231.8,71.25 232.2,71 232.6,70.76 232.99,70.52 233.39,70.29 233.78,70.06 234.18,69.83 234.58,69.6 234.97,69.37 235.37,69.15 235.77,68.92 236.16,68.69 236.56,68.46 236.96,68.22 237.35,67.98 237.75,67.73 238.14,67.48 238.54,67.22 238.94,66.94 239.33,66.66 239.73,66.37 240.13,66.06 240.52,65.74 240.92,65.41 241.31,65.07 241.71,64.72 242.11,64.36 242.5,63.98 242.9,63.59 243.3,63.2 243.69,62.8 244.09,62.39 244.49,61.98 244.88,61.56 245.28,61.14 245.67,60.73 246.07,60.31 246.47,59.9 246.86,59.5 247.26,59.1 247.66,58.72 248.05,58.34 248.45,57.98 248.85,57.63 249.24,57.3 249.64,56.99 250.03,56.69 250.43,56.42 250.83,56.16 251.22,55.91 251.62,55.69 252.02,55.49 252.41,55.3 252.81,55.13 253.21,54.98 253.6,54.84 254,54.72 254.39,54.61 254.79,54.51 255.19,54.43 255.58,54.35 255.98,54.29 256.38,54.23 256.77,54.19 257.17,54.15 257.56,54.11 257.96,54.08 258.36,54.06 258.75,54.04 259.15,54.02 259.55,54.01 259.94,54 260.34,53.99 260.74,53.98 261.13,53.97 261.53,53.97" stroke-dasharray="none" stroke="rgb(31,120,180)" stroke-width="0.75" opacity="1" stroke-opacity="1" fill="none"/>
          </g>
          <g id="Fig:densplot_01.xyplot.lines.group.3.panel.1.1.1">
            <polyline id="Fig:densplot_01.xyplot.lines.group.3.panel.1.1.1.1" points="62.72,54.32 63.1,54.42 63.49,54.54 63.88,54.69 64.27,54.87 64.66,55.1 65.05,55.38 65.44,55.71 65.83,56.1 66.22,56.57 66.61,57.13 67,57.8 67.39,58.57 67.78,59.46 68.17,60.49 68.55,61.69 68.94,63.08 69.33,64.65 69.72,66.41 70.11,68.38 70.5,70.58 70.89,73.07 71.28,75.81 71.67,78.82 72.06,82.08 72.45,85.61 72.84,89.42 73.23,93.56 73.62,97.94 74,102.57 74.39,107.43 74.78,112.51 75.17,117.8 75.56,123.27 75.95,128.86 76.34,134.55 76.73,140.3 77.12,146.08 77.51,151.85 77.9,157.54 78.29,163.13 78.68,168.57 79.06,173.85 79.45,178.92 79.84,183.68 80.23,188.16 80.62,192.33 81.01,196.19 81.4,199.71 81.79,202.86 82.18,205.58 82.57,207.95 82.96,209.96 83.35,211.63 83.74,212.96 84.13,213.93 84.51,214.56 84.9,214.91 85.29,215 85.68,214.85 86.07,214.49 86.46,213.9 86.85,213.14 87.24,212.25 87.63,211.23 88.02,210.12 88.41,208.93 88.8,207.67 89.19,206.36 89.58,205.02 89.96,203.66 90.35,202.3 90.74,200.93 91.13,199.57 91.52,198.22 91.91,196.88 92.3,195.56 92.69,194.25 93.08,192.96 93.47,191.69 93.86,190.44 94.25,189.2 94.64,187.97 95.03,186.75 95.41,185.55 95.8,184.35 96.19,183.16 96.58,181.98 96.97,180.8 97.36,179.62 97.75,178.45 98.14,177.29 98.53,176.13 98.92,174.97 99.31,173.82 99.7,172.68 100.09,171.56 100.47,170.44 100.86,169.33 101.25,168.24 101.64,167.16 102.03,166.1 102.42,165.06 102.81,164.05 103.2,163.05 103.59,162.07 103.98,161.11 104.37,160.19 104.76,159.28 105.15,158.4 105.54,157.54 105.92,156.7 106.31,155.88 106.7,155.09 107.09,154.32 107.48,153.56 107.87,152.82 108.26,152.1 108.65,151.39 109.04,150.7 109.43,150.02 109.82,149.35 110.21,148.69 110.6,148.05 110.99,147.41 111.37,146.78 111.76,146.17 112.15,145.56 112.54,144.97 112.93,144.39 113.32,143.82 113.71,143.26 114.1,142.73 114.49,142.2 114.88,141.7 115.27,141.21 115.66,140.75 116.05,140.31 116.44,139.88 116.82,139.48 117.21,139.1 117.6,138.74 117.99,138.4 118.38,138.08 118.77,137.79 119.16,137.51 119.55,137.24 119.94,137 120.33,136.77 120.72,136.55 121.11,136.34 121.5,136.14 121.88,135.96 122.27,135.78 122.66,135.6 123.05,135.43 123.44,135.27 123.83,135.11 124.22,134.95 124.61,134.8 125,134.65 125.39,134.5 125.78,134.36 126.17,134.22 126.56,134.08 126.95,133.95 127.33,133.83 127.72,133.71 128.11,133.6 128.5,133.5 128.89,133.41 129.28,133.33 129.67,133.26 130.06,133.2 130.45,133.15 130.84,133.11 131.23,133.09 131.62,133.08 132.01,133.09 132.4,133.1 132.78,133.13 133.17,133.17 133.56,133.23 133.95,133.3 134.34,133.37 134.73,133.46 135.12,133.55 135.51,133.66 135.9,133.77 136.29,133.89 136.68,134.01 137.07,134.14 137.46,134.27 137.85,134.41 138.23,134.54 138.62,134.68 139.01,134.82 139.4,134.96 139.79,135.09 140.18,135.23 140.57,135.36 140.96,135.49 141.35,135.62 141.74,135.75 142.13,135.87 142.52,135.98 142.91,136.1 143.3,136.2 143.68,136.3 144.07,136.4 144.46,136.49 144.85,136.57 145.24,136.64 145.63,136.7 146.02,136.76 146.41,136.81 146.8,136.84 147.19,136.86 147.58,136.87 147.97,136.87 148.36,136.85 148.74,136.83 149.13,136.78 149.52,136.72 149.91,136.65 150.3,136.56 150.69,136.46 151.08,136.34 151.47,136.21 151.86,136.06 152.25,135.9 152.64,135.73 153.03,135.55 153.42,135.36 153.81,135.15 154.19,134.94 154.58,134.72 154.97,134.49 155.36,134.26 155.75,134.02 156.14,133.78 156.53,133.54 156.92,133.3 157.31,133.06 157.7,132.82 158.09,132.59 158.48,132.36 158.87,132.13 159.26,131.91 159.64,131.69 160.03,131.48 160.42,131.28 160.81,131.09 161.2,130.9 161.59,130.72 161.98,130.54 162.37,130.37 162.76,130.21 163.15,130.05 163.54,129.9 163.93,129.75 164.32,129.6 164.71,129.46 165.09,129.31 165.48,129.17 165.87,129.03 166.26,128.89 166.65,128.74 167.04,128.59 167.43,128.44 167.82,128.28 168.21,128.12 168.6,127.95 168.99,127.78 169.38,127.59 169.77,127.4 170.15,127.2 170.54,127 170.93,126.78 171.32,126.56 171.71,126.33 172.1,126.09 172.49,125.85 172.88,125.6 173.27,125.34 173.66,125.08 174.05,124.81 174.44,124.53 174.83,124.25 175.22,123.97 175.6,123.69 175.99,123.39 176.38,123.1 176.77,122.8 177.16,122.5 177.55,122.19 177.94,121.88 178.33,121.56 178.72,121.23 179.11,120.9 179.5,120.56 179.89,120.21 180.28,119.85 180.67,119.48 181.05,119.1 181.44,118.7 181.83,118.3 182.22,117.89 182.61,117.46 183,117.01 183.39,116.56 183.78,116.09 184.17,115.62 184.56,115.13 184.95,114.63 185.34,114.13 185.73,113.62 186.12,113.1 186.5,112.58 186.89,112.06 187.28,111.53 187.67,111 188.06,110.48 188.45,109.96 188.84,109.44 189.23,108.92 189.62,108.41 190.01,107.91 190.4,107.41 190.79,106.91 191.18,106.43 191.56,105.95 191.95,105.47 192.34,105.01 192.73,104.55 193.12,104.09 193.51,103.64 193.9,103.2 194.29,102.76 194.68,102.33 195.07,101.9 195.46,101.48 195.85,101.06 196.24,100.65 196.63,100.24 197.01,99.84 197.4,99.44 197.79,99.05 198.18,98.67 198.57,98.29 198.96,97.91 199.35,97.54 199.74,97.17 200.13,96.81 200.52,96.46 200.91,96.11 201.3,95.76 201.69,95.42 202.08,95.08 202.46,94.74 202.85,94.41 203.24,94.07 203.63,93.74 204.02,93.4 204.41,93.07 204.8,92.73 205.19,92.39 205.58,92.05 205.97,91.71 206.36,91.36 206.75,91.02 207.14,90.66 207.53,90.31 207.91,89.95 208.3,89.59 208.69,89.23 209.08,88.87 209.47,88.51 209.86,88.15 210.25,87.79 210.64,87.43 211.03,87.07 211.42,86.72 211.81,86.37 212.2,86.03 212.59,85.7 212.97,85.37 213.36,85.04 213.75,84.72 214.14,84.41 214.53,84.11 214.92,83.82 215.31,83.53 215.7,83.25 216.09,82.97 216.48,82.71 216.87,82.44 217.26,82.19 217.65,81.93 218.04,81.69 218.42,81.44 218.81,81.2 219.2,80.95 219.59,80.71 219.98,80.47 220.37,80.23 220.76,79.99 221.15,79.74 221.54,79.5 221.93,79.25 222.32,79 222.71,78.74 223.1,78.48 223.49,78.22 223.87,77.95 224.26,77.68 224.65,77.41 225.04,77.13 225.43,76.85 225.82,76.57 226.21,76.29 226.6,76.01 226.99,75.72 227.38,75.43 227.77,75.15 228.16,74.86 228.55,74.57 228.94,74.29 229.32,74 229.71,73.72 230.1,73.43 230.49,73.15 230.88,72.87 231.27,72.6 231.66,72.32 232.05,72.05 232.44,71.77 232.83,71.5 233.22,71.23 233.61,70.96 234,70.69 234.38,70.42 234.77,70.15 235.16,69.88 235.55,69.61 235.94,69.33 236.33,69.06 236.72,68.77 237.11,68.49 237.5,68.2 237.89,67.91 238.28,67.61 238.67,67.3 239.06,66.99 239.45,66.67 239.83,66.35 240.22,66.01 240.61,65.67 241,65.32 241.39,64.96 241.78,64.59 242.17,64.21 242.56,63.83 242.95,63.44 243.34,63.05 243.73,62.65 244.12,62.24 244.51,61.83 244.9,61.43 245.28,61.02 245.67,60.61 246.06,60.21 246.45,59.81 246.84,59.42 247.23,59.04 247.62,58.67 248.01,58.31 248.4,57.96 248.79,57.63 249.18,57.31 249.57,57 249.96,56.72 250.35,56.45 250.73,56.19 251.12,55.96 251.51,55.74 251.9,55.53 252.29,55.35 252.68,55.18 253.07,55.03 253.46,54.89 253.85,54.76 254.24,54.65 254.63,54.56 255.02,54.47 255.41,54.39 255.79,54.32 256.18,54.27 256.57,54.22 256.96,54.17 257.35,54.13 257.74,54.1 258.13,54.08 258.52,54.05 258.91,54.04 259.3,54.02 259.69,54.01 260.08,54 260.47,53.99 260.86,53.98 261.24,53.97 261.63,53.97" stroke-dasharray="none" stroke="rgb(31,120,180)" stroke-width="0.75" opacity="1" stroke-opacity="1" fill="none"/>
          </g>
          <g id="Fig:densplot_01.xyplot.lines.group.4.panel.1.1.1">
            <polyline id="Fig:densplot_01.xyplot.lines.group.4.panel.1.1.1.1" points="62.08,54.3 62.47,54.4 62.86,54.51 63.25,54.66 63.65,54.83 64.04,55.05 64.43,55.31 64.82,55.62 65.21,55.99 65.6,56.43 65.99,56.96 66.38,57.59 66.77,58.32 67.16,59.17 67.55,60.14 67.94,61.25 68.34,62.55 68.73,64.03 69.12,65.69 69.51,67.56 69.9,69.63 70.29,71.92 70.68,74.51 71.07,77.33 71.46,80.41 71.85,83.73 72.24,87.31 72.63,91.15 73.03,95.28 73.42,99.64 73.81,104.21 74.2,108.98 74.59,113.94 74.98,119.07 75.37,124.34 75.76,129.69 76.15,135.11 76.54,140.55 76.93,145.98 77.32,151.35 77.72,156.63 78.11,161.77 78.5,166.74 78.89,171.53 79.28,176.09 79.67,180.33 80.06,184.29 80.45,187.95 80.84,191.3 81.23,194.33 81.62,197 82.01,199.28 82.41,201.24 82.8,202.87 83.19,204.2 83.58,205.24 83.97,205.94 84.36,206.37 84.75,206.57 85.14,206.56 85.53,206.35 85.92,205.97 86.31,205.42 86.7,204.75 87.1,203.98 87.49,203.13 87.88,202.21 88.27,201.25 88.66,200.24 89.05,199.21 89.44,198.18 89.83,197.14 90.22,196.09 90.61,195.06 91,194.03 91.4,193.02 91.79,192.01 92.18,191.01 92.57,190.01 92.96,189.02 93.35,188.03 93.74,187.04 94.13,186.04 94.52,185.03 94.91,184.02 95.3,182.99 95.69,181.95 96.09,180.89 96.48,179.82 96.87,178.74 97.26,177.64 97.65,176.53 98.04,175.41 98.43,174.28 98.82,173.14 99.21,172.01 99.6,170.87 99.99,169.74 100.38,168.61 100.78,167.5 101.17,166.39 101.56,165.3 101.95,164.23 102.34,163.18 102.73,162.15 103.12,161.14 103.51,160.15 103.9,159.19 104.29,158.25 104.68,157.34 105.07,156.44 105.47,155.57 105.86,154.72 106.25,153.89 106.64,153.08 107.03,152.29 107.42,151.52 107.81,150.76 108.2,150.02 108.59,149.3 108.98,148.59 109.37,147.9 109.76,147.22 110.16,146.56 110.55,145.9 110.94,145.27 111.33,144.65 111.72,144.04 112.11,143.45 112.5,142.87 112.89,142.31 113.28,141.76 113.67,141.24 114.06,140.72 114.46,140.23 114.85,139.75 115.24,139.29 115.63,138.86 116.02,138.44 116.41,138.04 116.8,137.65 117.19,137.29 117.58,136.95 117.97,136.63 118.36,136.34 118.75,136.06 119.15,135.8 119.54,135.57 119.93,135.36 120.32,135.17 120.71,135 121.1,134.85 121.49,134.71 121.88,134.6 122.27,134.51 122.66,134.44 123.05,134.38 123.44,134.34 123.84,134.31 124.23,134.29 124.62,134.28 125.01,134.28 125.4,134.28 125.79,134.29 126.18,134.31 126.57,134.32 126.96,134.33 127.35,134.34 127.74,134.35 128.13,134.36 128.53,134.35 128.92,134.35 129.31,134.33 129.7,134.31 130.09,134.29 130.48,134.25 130.87,134.22 131.26,134.17 131.65,134.13 132.04,134.08 132.43,134.03 132.82,133.97 133.22,133.92 133.61,133.87 134,133.82 134.39,133.77 134.78,133.73 135.17,133.69 135.56,133.66 135.95,133.63 136.34,133.62 136.73,133.61 137.12,133.6 137.51,133.61 137.91,133.63 138.3,133.66 138.69,133.69 139.08,133.74 139.47,133.79 139.86,133.86 140.25,133.93 140.64,134.02 141.03,134.11 141.42,134.21 141.81,134.31 142.21,134.43 142.6,134.55 142.99,134.68 143.38,134.81 143.77,134.95 144.16,135.08 144.55,135.22 144.94,135.36 145.33,135.5 145.72,135.64 146.11,135.78 146.5,135.9 146.9,136.03 147.29,136.14 147.68,136.25 148.07,136.34 148.46,136.43 148.85,136.49 149.24,136.55 149.63,136.59 150.02,136.61 150.41,136.62 150.8,136.61 151.19,136.58 151.59,136.54 151.98,136.47 152.37,136.39 152.76,136.29 153.15,136.18 153.54,136.04 153.93,135.89 154.32,135.73 154.71,135.55 155.1,135.37 155.49,135.16 155.88,134.95 156.28,134.73 156.67,134.51 157.06,134.28 157.45,134.04 157.84,133.8 158.23,133.55 158.62,133.31 159.01,133.07 159.4,132.82 159.79,132.58 160.18,132.34 160.57,132.1 160.97,131.87 161.36,131.64 161.75,131.41 162.14,131.19 162.53,130.97 162.92,130.75 163.31,130.53 163.7,130.32 164.09,130.11 164.48,129.9 164.87,129.69 165.26,129.48 165.66,129.27 166.05,129.06 166.44,128.85 166.83,128.64 167.22,128.43 167.61,128.22 168,128 168.39,127.79 168.78,127.57 169.17,127.36 169.56,127.14 169.96,126.93 170.35,126.71 170.74,126.5 171.13,126.29 171.52,126.08 171.91,125.88 172.3,125.67 172.69,125.47 173.08,125.27 173.47,125.07 173.86,124.88 174.25,124.68 174.65,124.48 175.04,124.29 175.43,124.09 175.82,123.89 176.21,123.68 176.6,123.47 176.99,123.25 177.38,123.03 177.77,122.79 178.16,122.55 178.55,122.29 178.94,122.02 179.34,121.74 179.73,121.45 180.12,121.15 180.51,120.83 180.9,120.5 181.29,120.15 181.68,119.79 182.07,119.42 182.46,119.04 182.85,118.64 183.24,118.23 183.63,117.82 184.03,117.39 184.42,116.95 184.81,116.5 185.2,116.05 185.59,115.59 185.98,115.12 186.37,114.65 186.76,114.17 187.15,113.69 187.54,113.2 187.93,112.72 188.32,112.23 188.72,111.74 189.11,111.25 189.5,110.76 189.89,110.28 190.28,109.8 190.67,109.32 191.06,108.84 191.45,108.37 191.84,107.91 192.23,107.45 192.62,107 193.01,106.56 193.41,106.13 193.8,105.7 194.19,105.28 194.58,104.87 194.97,104.47 195.36,104.07 195.75,103.69 196.14,103.31 196.53,102.94 196.92,102.58 197.31,102.22 197.71,101.87 198.1,101.53 198.49,101.2 198.88,100.87 199.27,100.54 199.66,100.22 200.05,99.9 200.44,99.59 200.83,99.28 201.22,98.97 201.61,98.66 202,98.35 202.4,98.05 202.79,97.74 203.18,97.43 203.57,97.12 203.96,96.81 204.35,96.49 204.74,96.17 205.13,95.85 205.52,95.53 205.91,95.2 206.3,94.86 206.69,94.52 207.09,94.18 207.48,93.84 207.87,93.49 208.26,93.13 208.65,92.78 209.04,92.42 209.43,92.05 209.82,91.69 210.21,91.32 210.6,90.95 210.99,90.58 211.38,90.21 211.78,89.84 212.17,89.46 212.56,89.09 212.95,88.71 213.34,88.34 213.73,87.96 214.12,87.58 214.51,87.2 214.9,86.82 215.29,86.44 215.68,86.05 216.07,85.67 216.47,85.29 216.86,84.9 217.25,84.51 217.64,84.13 218.03,83.74 218.42,83.35 218.81,82.97 219.2,82.58 219.59,82.2 219.98,81.81 220.37,81.43 220.76,81.06 221.16,80.68 221.55,80.31 221.94,79.95 222.33,79.59 222.72,79.23 223.11,78.88 223.5,78.54 223.89,78.2 224.28,77.87 224.67,77.55 225.06,77.23 225.46,76.92 225.85,76.61 226.24,76.31 226.63,76.01 227.02,75.72 227.41,75.44 227.8,75.16 228.19,74.89 228.58,74.61 228.97,74.35 229.36,74.08 229.75,73.82 230.15,73.56 230.54,73.3 230.93,73.05 231.32,72.79 231.71,72.54 232.1,72.29 232.49,72.04 232.88,71.79 233.27,71.54 233.66,71.29 234.05,71.03 234.44,70.78 234.84,70.52 235.23,70.27 235.62,70.01 236.01,69.74 236.4,69.47 236.79,69.2 237.18,68.91 237.57,68.63 237.96,68.33 238.35,68.03 238.74,67.72 239.13,67.4 239.53,67.06 239.92,66.72 240.31,66.37 240.7,66.01 241.09,65.63 241.48,65.25 241.87,64.85 242.26,64.45 242.65,64.04 243.04,63.62 243.43,63.19 243.82,62.76 244.22,62.33 244.61,61.89 245,61.46 245.39,61.03 245.78,60.6 246.17,60.17 246.56,59.76 246.95,59.35 247.34,58.95 247.73,58.57 248.12,58.2 248.52,57.85 248.91,57.5 249.3,57.18 249.69,56.88 250.08,56.59 250.47,56.33 250.86,56.08 251.25,55.84 251.64,55.63 252.03,55.44 252.42,55.26 252.81,55.1 253.21,54.95 253.6,54.82 253.99,54.7 254.38,54.6 254.77,54.5 255.16,54.42 255.55,54.35 255.94,54.29 256.33,54.24 256.72,54.19 257.11,54.15 257.5,54.12 257.9,54.09 258.29,54.06 258.68,54.04 259.07,54.03 259.46,54.01 259.85,54 260.24,53.99 260.63,53.98 261.02,53.98 261.41,53.97 261.8,53.97" stroke-dasharray="none" stroke="rgb(31,120,180)" stroke-width="0.75" opacity="1" stroke-opacity="1" fill="none"/>
          </g>
          <g id="Fig:densplot_01.xyplot.lines.group.5.panel.1.1.1">
            <polyline id="Fig:densplot_01.xyplot.lines.group.5.panel.1.1.1.1" points="61.24,54.28 61.64,54.37 62.03,54.48 62.42,54.62 62.81,54.79 63.21,55 63.6,55.25 63.99,55.55 64.38,55.91 64.78,56.35 65.17,56.87 65.56,57.48 65.95,58.18 66.34,59 66.74,59.96 67.13,61.07 67.52,62.35 67.91,63.79 68.31,65.42 68.7,67.23 69.09,69.29 69.48,71.59 69.88,74.12 70.27,76.89 70.66,79.9 71.05,83.16 71.44,86.71 71.84,90.52 72.23,94.56 72.62,98.83 73.01,103.31 73.41,107.98 73.8,112.87 74.19,117.89 74.58,123.03 74.97,128.24 75.37,133.5 75.76,138.79 76.15,144.03 76.54,149.2 76.94,154.27 77.33,159.19 77.72,163.94 78.11,168.46 78.51,172.7 78.9,176.67 79.29,180.35 79.68,183.73 80.07,186.78 80.47,189.44 80.86,191.74 81.25,193.71 81.64,195.35 82.04,196.67 82.43,197.68 82.82,198.33 83.21,198.71 83.61,198.84 84,198.74 84.39,198.45 84.78,197.95 85.17,197.27 85.57,196.47 85.96,195.56 86.35,194.57 86.74,193.51 87.14,192.39 87.53,191.24 87.92,190.08 88.31,188.91 88.7,187.74 89.1,186.59 89.49,185.47 89.88,184.37 90.27,183.31 90.67,182.27 91.06,181.27 91.45,180.3 91.84,179.37 92.24,178.47 92.63,177.6 93.02,176.76 93.41,175.93 93.8,175.13 94.2,174.36 94.59,173.59 94.98,172.84 95.37,172.1 95.77,171.37 96.16,170.64 96.55,169.92 96.94,169.21 97.34,168.49 97.73,167.78 98.12,167.07 98.51,166.36 98.9,165.64 99.3,164.93 99.69,164.23 100.08,163.52 100.47,162.81 100.87,162.11 101.26,161.41 101.65,160.71 102.04,160.01 102.43,159.32 102.83,158.64 103.22,157.96 103.61,157.29 104,156.62 104.4,155.96 104.79,155.3 105.18,154.65 105.57,154.01 105.97,153.38 106.36,152.75 106.75,152.13 107.14,151.51 107.53,150.9 107.93,150.3 108.32,149.7 108.71,149.12 109.1,148.54 109.5,147.96 109.89,147.4 110.28,146.85 110.67,146.31 111.07,145.79 111.46,145.27 111.85,144.77 112.24,144.29 112.63,143.82 113.03,143.37 113.42,142.93 113.81,142.52 114.2,142.12 114.6,141.75 114.99,141.39 115.38,141.06 115.77,140.74 116.16,140.45 116.56,140.18 116.95,139.93 117.34,139.7 117.73,139.48 118.13,139.28 118.52,139.1 118.91,138.94 119.3,138.79 119.7,138.66 120.09,138.54 120.48,138.43 120.87,138.33 121.26,138.24 121.66,138.16 122.05,138.08 122.44,138.02 122.83,137.96 123.23,137.9 123.62,137.86 124.01,137.81 124.4,137.77 124.8,137.73 125.19,137.7 125.58,137.67 125.97,137.64 126.36,137.62 126.76,137.59 127.15,137.57 127.54,137.55 127.93,137.53 128.33,137.51 128.72,137.49 129.11,137.47 129.5,137.44 129.89,137.42 130.29,137.39 130.68,137.36 131.07,137.33 131.46,137.3 131.86,137.26 132.25,137.22 132.64,137.17 133.03,137.12 133.43,137.07 133.82,137.02 134.21,136.97 134.6,136.91 134.99,136.85 135.39,136.8 135.78,136.74 136.17,136.69 136.56,136.64 136.96,136.59 137.35,136.55 137.74,136.51 138.13,136.49 138.53,136.47 138.92,136.45 139.31,136.45 139.7,136.46 140.09,136.48 140.49,136.51 140.88,136.55 141.27,136.6 141.66,136.67 142.06,136.74 142.45,136.82 142.84,136.91 143.23,137.01 143.62,137.12 144.02,137.23 144.41,137.35 144.8,137.47 145.19,137.59 145.59,137.71 145.98,137.83 146.37,137.95 146.76,138.06 147.16,138.17 147.55,138.27 147.94,138.37 148.33,138.46 148.72,138.54 149.12,138.61 149.51,138.66 149.9,138.71 150.29,138.75 150.69,138.77 151.08,138.79 151.47,138.79 151.86,138.78 152.26,138.75 152.65,138.72 153.04,138.67 153.43,138.6 153.82,138.53 154.22,138.44 154.61,138.34 155,138.22 155.39,138.09 155.79,137.95 156.18,137.79 156.57,137.62 156.96,137.44 157.35,137.24 157.75,137.03 158.14,136.81 158.53,136.58 158.92,136.33 159.32,136.07 159.71,135.8 160.1,135.52 160.49,135.23 160.89,134.93 161.28,134.63 161.67,134.31 162.06,133.99 162.45,133.67 162.85,133.34 163.24,133.01 163.63,132.68 164.02,132.35 164.42,132.01 164.81,131.68 165.2,131.35 165.59,131.03 165.98,130.7 166.38,130.38 166.77,130.07 167.16,129.76 167.55,129.45 167.95,129.15 168.34,128.86 168.73,128.57 169.12,128.29 169.52,128.01 169.91,127.74 170.3,127.47 170.69,127.21 171.08,126.96 171.48,126.71 171.87,126.46 172.26,126.22 172.65,125.98 173.05,125.74 173.44,125.51 173.83,125.27 174.22,125.04 174.62,124.81 175.01,124.58 175.4,124.34 175.79,124.1 176.18,123.86 176.58,123.62 176.97,123.37 177.36,123.11 177.75,122.85 178.15,122.57 178.54,122.29 178.93,122 179.32,121.7 179.71,121.39 180.11,121.07 180.5,120.73 180.89,120.38 181.28,120.02 181.68,119.65 182.07,119.26 182.46,118.86 182.85,118.44 183.25,118.01 183.64,117.57 184.03,117.12 184.42,116.66 184.81,116.18 185.21,115.7 185.6,115.21 185.99,114.71 186.38,114.2 186.78,113.69 187.17,113.18 187.56,112.66 187.95,112.14 188.35,111.62 188.74,111.1 189.13,110.59 189.52,110.07 189.91,109.57 190.31,109.06 190.7,108.57 191.09,108.08 191.48,107.61 191.88,107.14 192.27,106.68 192.66,106.23 193.05,105.8 193.44,105.37 193.84,104.96 194.23,104.55 194.62,104.16 195.01,103.78 195.41,103.4 195.8,103.04 196.19,102.68 196.58,102.32 196.98,101.98 197.37,101.63 197.76,101.29 198.15,100.95 198.54,100.61 198.94,100.27 199.33,99.92 199.72,99.58 200.11,99.22 200.51,98.87 200.9,98.51 201.29,98.14 201.68,97.77 202.08,97.39 202.47,97.01 202.86,96.62 203.25,96.23 203.64,95.83 204.04,95.43 204.43,95.03 204.82,94.63 205.21,94.23 205.61,93.82 206,93.42 206.39,93.03 206.78,92.63 207.17,92.24 207.57,91.86 207.96,91.48 208.35,91.11 208.74,90.74 209.14,90.38 209.53,90.02 209.92,89.67 210.31,89.33 210.71,88.99 211.1,88.66 211.49,88.34 211.88,88.01 212.27,87.69 212.67,87.38 213.06,87.06 213.45,86.75 213.84,86.44 214.24,86.13 214.63,85.82 215.02,85.5 215.41,85.19 215.81,84.87 216.2,84.55 216.59,84.23 216.98,83.91 217.37,83.58 217.77,83.25 218.16,82.92 218.55,82.58 218.94,82.25 219.34,81.91 219.73,81.57 220.12,81.23 220.51,80.89 220.9,80.55 221.3,80.21 221.69,79.88 222.08,79.54 222.47,79.21 222.87,78.88 223.26,78.55 223.65,78.22 224.04,77.9 224.44,77.58 224.83,77.27 225.22,76.96 225.61,76.65 226,76.34 226.4,76.04 226.79,75.74 227.18,75.44 227.57,75.15 227.97,74.86 228.36,74.57 228.75,74.28 229.14,73.99 229.54,73.71 229.93,73.43 230.32,73.16 230.71,72.88 231.1,72.61 231.5,72.34 231.89,72.08 232.28,71.81 232.67,71.55 233.07,71.3 233.46,71.04 233.85,70.79 234.24,70.55 234.63,70.3 235.03,70.05 235.42,69.81 235.81,69.57 236.2,69.32 236.6,69.07 236.99,68.82 237.38,68.57 237.77,68.31 238.17,68.04 238.56,67.76 238.95,67.47 239.34,67.18 239.73,66.87 240.13,66.55 240.52,66.22 240.91,65.88 241.3,65.52 241.7,65.15 242.09,64.76 242.48,64.37 242.87,63.97 243.27,63.55 243.66,63.13 244.05,62.7 244.44,62.26 244.83,61.83 245.23,61.39 245.62,60.95 246.01,60.52 246.4,60.09 246.8,59.67 247.19,59.26 247.58,58.86 247.97,58.47 248.36,58.1 248.76,57.74 249.15,57.4 249.54,57.08 249.93,56.77 250.33,56.49 250.72,56.22 251.11,55.98 251.5,55.75 251.9,55.54 252.29,55.35 252.68,55.18 253.07,55.02 253.46,54.88 253.86,54.75 254.25,54.64 254.64,54.54 255.03,54.45 255.43,54.38 255.82,54.31 256.21,54.25 256.6,54.2 257,54.16 257.39,54.13 257.78,54.1 258.17,54.07 258.56,54.05 258.96,54.03 259.35,54.01 259.74,54 260.13,53.99 260.53,53.98 260.92,53.98 261.31,53.97 261.7,53.97" stroke-dasharray="none" stroke="rgb(31,120,180)" stroke-width="0.75" opacity="1" stroke-opacity="1" fill="none"/>
          </g>
          <g id="Fig:densplot_01.xyplot.lines.group.6.panel.1.1.1">
            <polyline id="Fig:densplot_01.xyplot.lines.group.6.panel.1.1.1.1" points="59.18,54.18 59.58,54.25 59.98,54.33 60.37,54.43 60.77,54.55 61.16,54.7 61.56,54.89 61.96,55.12 62.35,55.39 62.75,55.71 63.14,56.09 63.54,56.56 63.94,57.11 64.33,57.75 64.73,58.5 65.13,59.35 65.52,60.33 65.92,61.48 66.31,62.78 66.71,64.24 67.11,65.87 67.5,67.69 67.9,69.71 68.29,71.97 68.69,74.44 69.09,77.12 69.48,80.01 69.88,83.11 70.27,86.44 70.67,90 71.07,93.75 71.46,97.66 71.86,101.73 72.26,105.94 72.65,110.28 73.05,114.71 73.44,119.19 73.84,123.69 74.24,128.18 74.63,132.64 75.03,137.02 75.42,141.27 75.82,145.39 76.22,149.33 76.61,153.09 77.01,156.64 77.41,159.89 77.8,162.88 78.2,165.61 78.59,168.06 78.99,170.23 79.39,172.12 79.78,173.67 80.18,174.96 80.57,175.99 80.97,176.79 81.37,177.36 81.76,177.7 82.16,177.83 82.55,177.8 82.95,177.63 83.35,177.34 83.74,176.94 84.14,176.46 84.54,175.92 84.93,175.33 85.33,174.73 85.72,174.11 86.12,173.49 86.52,172.89 86.91,172.32 87.31,171.77 87.7,171.26 88.1,170.79 88.5,170.35 88.89,169.97 89.29,169.63 89.68,169.32 90.08,169.06 90.48,168.82 90.87,168.62 91.27,168.46 91.67,168.31 92.06,168.19 92.46,168.08 92.85,167.98 93.25,167.89 93.65,167.81 94.04,167.73 94.44,167.64 94.83,167.55 95.23,167.46 95.63,167.35 96.02,167.22 96.42,167.08 96.82,166.93 97.21,166.75 97.61,166.56 98,166.34 98.4,166.1 98.8,165.84 99.19,165.56 99.59,165.25 99.98,164.93 100.38,164.57 100.78,164.2 101.17,163.8 101.57,163.38 101.96,162.95 102.36,162.5 102.76,162.02 103.15,161.53 103.55,161.03 103.95,160.51 104.34,159.99 104.74,159.45 105.13,158.9 105.53,158.35 105.93,157.79 106.32,157.23 106.72,156.66 107.11,156.1 107.51,155.53 107.91,154.97 108.3,154.42 108.7,153.86 109.1,153.31 109.49,152.77 109.89,152.24 110.28,151.72 110.68,151.2 111.08,150.7 111.47,150.21 111.87,149.72 112.26,149.25 112.66,148.8 113.06,148.35 113.45,147.92 113.85,147.51 114.24,147.1 114.64,146.71 115.04,146.34 115.43,145.98 115.83,145.63 116.23,145.3 116.62,144.98 117.02,144.68 117.41,144.39 117.81,144.11 118.21,143.84 118.6,143.58 119,143.34 119.39,143.1 119.79,142.88 120.19,142.66 120.58,142.45 120.98,142.25 121.37,142.06 121.77,141.87 122.17,141.7 122.56,141.52 122.96,141.36 123.36,141.2 123.75,141.05 124.15,140.9 124.54,140.77 124.94,140.64 125.34,140.52 125.73,140.41 126.13,140.32 126.52,140.23 126.92,140.15 127.32,140.08 127.71,140.02 128.11,139.97 128.51,139.94 128.9,139.91 129.3,139.89 129.69,139.87 130.09,139.86 130.49,139.86 130.88,139.86 131.28,139.87 131.67,139.87 132.07,139.88 132.47,139.89 132.86,139.89 133.26,139.9 133.65,139.9 134.05,139.91 134.45,139.91 134.84,139.91 135.24,139.91 135.64,139.91 136.03,139.91 136.43,139.91 136.82,139.91 137.22,139.91 137.62,139.92 138.01,139.93 138.41,139.94 138.8,139.95 139.2,139.96 139.6,139.98 139.99,140 140.39,140.02 140.79,140.04 141.18,140.06 141.58,140.08 141.97,140.09 142.37,140.11 142.77,140.12 143.16,140.12 143.56,140.12 143.95,140.11 144.35,140.1 144.75,140.08 145.14,140.05 145.54,140.01 145.93,139.96 146.33,139.91 146.73,139.85 147.12,139.79 147.52,139.72 147.92,139.64 148.31,139.56 148.71,139.48 149.1,139.39 149.5,139.3 149.9,139.21 150.29,139.12 150.69,139.03 151.08,138.93 151.48,138.83 151.88,138.74 152.27,138.64 152.67,138.54 153.06,138.44 153.46,138.34 153.86,138.24 154.25,138.14 154.65,138.04 155.05,137.93 155.44,137.83 155.84,137.72 156.23,137.61 156.63,137.49 157.03,137.37 157.42,137.25 157.82,137.13 158.21,137 158.61,136.87 159.01,136.73 159.4,136.58 159.8,136.43 160.2,136.27 160.59,136.11 160.99,135.93 161.38,135.74 161.78,135.54 162.18,135.33 162.57,135.11 162.97,134.88 163.36,134.63 163.76,134.37 164.16,134.1 164.55,133.81 164.95,133.51 165.34,133.2 165.74,132.87 166.14,132.54 166.53,132.19 166.93,131.83 167.33,131.47 167.72,131.09 168.12,130.71 168.51,130.33 168.91,129.94 169.31,129.55 169.7,129.16 170.1,128.77 170.49,128.38 170.89,127.98 171.29,127.6 171.68,127.21 172.08,126.83 172.48,126.45 172.87,126.07 173.27,125.7 173.66,125.33 174.06,124.97 174.46,124.61 174.85,124.25 175.25,123.9 175.64,123.55 176.04,123.21 176.44,122.87 176.83,122.53 177.23,122.2 177.62,121.88 178.02,121.55 178.42,121.24 178.81,120.92 179.21,120.61 179.61,120.31 180,120.01 180.4,119.71 180.79,119.42 181.19,119.13 181.59,118.84 181.98,118.55 182.38,118.26 182.77,117.98 183.17,117.69 183.57,117.4 183.96,117.1 184.36,116.8 184.75,116.49 185.15,116.18 185.55,115.86 185.94,115.52 186.34,115.18 186.74,114.82 187.13,114.44 187.53,114.06 187.92,113.66 188.32,113.24 188.72,112.81 189.11,112.36 189.51,111.9 189.9,111.42 190.3,110.94 190.7,110.44 191.09,109.92 191.49,109.4 191.89,108.88 192.28,108.35 192.68,107.81 193.07,107.27 193.47,106.74 193.87,106.2 194.26,105.67 194.66,105.15 195.05,104.63 195.45,104.12 195.85,103.62 196.24,103.14 196.64,102.66 197.03,102.2 197.43,101.75 197.83,101.32 198.22,100.91 198.62,100.5 199.02,100.11 199.41,99.73 199.81,99.36 200.2,99.01 200.6,98.67 201,98.33 201.39,98 201.79,97.68 202.18,97.37 202.58,97.06 202.98,96.75 203.37,96.44 203.77,96.13 204.17,95.82 204.56,95.51 204.96,95.2 205.35,94.88 205.75,94.56 206.15,94.23 206.54,93.9 206.94,93.56 207.33,93.22 207.73,92.87 208.13,92.52 208.52,92.16 208.92,91.79 209.31,91.42 209.71,91.05 210.11,90.67 210.5,90.28 210.9,89.9 211.3,89.51 211.69,89.11 212.09,88.71 212.48,88.32 212.88,87.91 213.28,87.51 213.67,87.1 214.07,86.7 214.46,86.29 214.86,85.88 215.26,85.46 215.65,85.05 216.05,84.63 216.44,84.21 216.84,83.79 217.24,83.37 217.63,82.94 218.03,82.52 218.43,82.09 218.82,81.66 219.22,81.24 219.61,80.81 220.01,80.38 220.41,79.95 220.8,79.53 221.2,79.11 221.59,78.69 221.99,78.28 222.39,77.87 222.78,77.47 223.18,77.07 223.58,76.68 223.97,76.3 224.37,75.92 224.76,75.56 225.16,75.2 225.56,74.85 225.95,74.51 226.35,74.18 226.74,73.86 227.14,73.55 227.54,73.24 227.93,72.94 228.33,72.66 228.72,72.38 229.12,72.1 229.52,71.84 229.91,71.58 230.31,71.33 230.71,71.08 231.1,70.85 231.5,70.62 231.89,70.39 232.29,70.17 232.69,69.96 233.08,69.75 233.48,69.55 233.87,69.35 234.27,69.15 234.67,68.96 235.06,68.76 235.46,68.57 235.86,68.38 236.25,68.19 236.65,67.99 237.04,67.79 237.44,67.58 237.84,67.37 238.23,67.14 238.63,66.91 239.02,66.67 239.42,66.41 239.82,66.13 240.21,65.85 240.61,65.55 241,65.23 241.4,64.9 241.8,64.55 242.19,64.19 242.59,63.81 242.99,63.43 243.38,63.03 243.78,62.62 244.17,62.21 244.57,61.78 244.97,61.36 245.36,60.93 245.76,60.51 246.15,60.09 246.55,59.67 246.95,59.27 247.34,58.87 247.74,58.48 248.13,58.11 248.53,57.75 248.93,57.41 249.32,57.09 249.72,56.78 250.12,56.5 250.51,56.23 250.91,55.98 251.3,55.75 251.7,55.54 252.1,55.35 252.49,55.17 252.89,55.01 253.28,54.87 253.68,54.75 254.08,54.64 254.47,54.54 254.87,54.45 255.27,54.37 255.66,54.3 256.06,54.25 256.45,54.2 256.85,54.16 257.25,54.12 257.64,54.09 258.04,54.07 258.43,54.04 258.83,54.03 259.23,54.01 259.62,54 260.02,53.99 260.41,53.98 260.81,53.98 261.21,53.97 261.6,53.97" stroke-dasharray="none" stroke="rgb(31,120,180)" stroke-width="0.75" opacity="1" stroke-opacity="1" fill="none"/>
          </g>
          <g id="Fig:densplot_01.xyplot.lines.group.7.panel.1.1.1">
            <polyline id="Fig:densplot_01.xyplot.lines.group.7.panel.1.1.1.1" points="63.61,54.38 64,54.5 64.39,54.64 64.78,54.81 65.16,55.02 65.55,55.27 65.94,55.59 66.33,55.97 66.71,56.41 67.1,56.94 67.49,57.55 67.88,58.29 68.26,59.16 68.65,60.16 69.04,61.31 69.43,62.61 69.81,64.1 70.2,65.83 70.59,67.77 70.98,69.94 71.36,72.34 71.75,74.99 72.14,77.93 72.53,81.19 72.91,84.71 73.3,88.52 73.69,92.6 74.08,96.95 74.46,101.62 74.85,106.55 75.24,111.71 75.63,117.09 76.01,122.65 76.4,128.37 76.79,134.25 77.18,140.21 77.56,146.22 77.95,152.24 78.34,158.23 78.73,164.14 79.11,169.92 79.5,175.53 79.89,180.94 80.28,186.12 80.66,191.04 81.05,195.63 81.44,199.86 81.83,203.74 82.21,207.27 82.6,210.44 82.99,213.23 83.38,215.57 83.76,217.54 84.15,219.15 84.54,220.41 84.93,221.35 85.31,221.96 85.7,222.22 86.09,222.22 86.48,221.99 86.86,221.54 87.25,220.89 87.64,220.06 88.03,219.07 88.41,217.96 88.8,216.75 89.19,215.46 89.58,214.11 89.96,212.69 90.35,211.23 90.74,209.75 91.13,208.25 91.51,206.74 91.9,205.23 92.29,203.71 92.68,202.2 93.06,200.69 93.45,199.19 93.84,197.69 94.23,196.2 94.61,194.72 95,193.25 95.39,191.77 95.78,190.31 96.16,188.85 96.55,187.4 96.94,185.95 97.33,184.51 97.71,183.07 98.1,181.64 98.49,180.22 98.88,178.8 99.26,177.4 99.65,176.01 100.04,174.63 100.43,173.26 100.81,171.91 101.2,170.57 101.59,169.26 101.98,167.96 102.36,166.68 102.75,165.42 103.14,164.19 103.53,162.98 103.91,161.8 104.3,160.64 104.69,159.51 105.08,158.4 105.46,157.32 105.85,156.28 106.24,155.25 106.63,154.26 107.01,153.29 107.4,152.36 107.79,151.45 108.18,150.58 108.56,149.73 108.95,148.9 109.34,148.1 109.73,147.34 110.11,146.6 110.5,145.89 110.89,145.2 111.28,144.53 111.66,143.89 112.05,143.28 112.44,142.7 112.83,142.14 113.21,141.6 113.6,141.08 113.99,140.58 114.38,140.11 114.76,139.66 115.15,139.23 115.54,138.82 115.93,138.43 116.31,138.06 116.7,137.71 117.09,137.37 117.48,137.05 117.86,136.74 118.25,136.45 118.64,136.16 119.03,135.89 119.41,135.62 119.8,135.37 120.19,135.11 120.58,134.87 120.96,134.62 121.35,134.38 121.74,134.14 122.13,133.9 122.51,133.66 122.9,133.42 123.29,133.18 123.68,132.94 124.06,132.7 124.45,132.47 124.84,132.23 125.23,132 125.61,131.77 126,131.54 126.39,131.33 126.78,131.12 127.17,130.92 127.55,130.73 127.94,130.56 128.33,130.41 128.72,130.27 129.1,130.15 129.49,130.04 129.88,129.97 130.27,129.91 130.65,129.87 131.04,129.86 131.43,129.87 131.82,129.9 132.2,129.96 132.59,130.03 132.98,130.13 133.37,130.25 133.75,130.38 134.14,130.53 134.53,130.7 134.92,130.88 135.3,131.07 135.69,131.27 136.08,131.49 136.47,131.71 136.85,131.93 137.24,132.16 137.63,132.39 138.02,132.63 138.4,132.86 138.79,133.09 139.18,133.33 139.57,133.56 139.95,133.78 140.34,134 140.73,134.22 141.12,134.43 141.5,134.64 141.89,134.84 142.28,135.03 142.67,135.21 143.05,135.38 143.44,135.54 143.83,135.7 144.22,135.84 144.6,135.96 144.99,136.08 145.38,136.18 145.77,136.26 146.15,136.32 146.54,136.37 146.93,136.41 147.32,136.42 147.7,136.41 148.09,136.38 148.48,136.33 148.87,136.27 149.25,136.18 149.64,136.07 150.03,135.94 150.42,135.8 150.8,135.64 151.19,135.46 151.58,135.27 151.97,135.06 152.35,134.83 152.74,134.6 153.13,134.36 153.52,134.12 153.9,133.86 154.29,133.61 154.68,133.35 155.07,133.09 155.45,132.83 155.84,132.58 156.23,132.33 156.62,132.08 157,131.85 157.39,131.61 157.78,131.39 158.17,131.17 158.55,130.97 158.94,130.77 159.33,130.57 159.72,130.39 160.1,130.21 160.49,130.04 160.88,129.87 161.27,129.71 161.65,129.56 162.04,129.41 162.43,129.26 162.82,129.12 163.2,128.98 163.59,128.84 163.98,128.71 164.37,128.58 164.75,128.45 165.14,128.33 165.53,128.2 165.92,128.09 166.3,127.97 166.69,127.86 167.08,127.75 167.47,127.64 167.85,127.54 168.24,127.43 168.63,127.33 169.02,127.23 169.4,127.13 169.79,127.04 170.18,126.94 170.57,126.83 170.95,126.73 171.34,126.62 171.73,126.51 172.12,126.38 172.5,126.26 172.89,126.12 173.28,125.98 173.67,125.82 174.05,125.65 174.44,125.47 174.83,125.28 175.22,125.07 175.6,124.86 175.99,124.62 176.38,124.37 176.77,124.11 177.15,123.83 177.54,123.54 177.93,123.23 178.32,122.91 178.7,122.57 179.09,122.22 179.48,121.86 179.87,121.49 180.25,121.11 180.64,120.72 181.03,120.32 181.42,119.91 181.8,119.5 182.19,119.08 182.58,118.65 182.97,118.22 183.35,117.79 183.74,117.35 184.13,116.92 184.52,116.48 184.9,116.03 185.29,115.59 185.68,115.14 186.07,114.69 186.45,114.24 186.84,113.78 187.23,113.32 187.62,112.86 188,112.39 188.39,111.92 188.78,111.44 189.17,110.95 189.55,110.46 189.94,109.96 190.33,109.45 190.72,108.94 191.1,108.42 191.49,107.9 191.88,107.37 192.27,106.84 192.66,106.3 193.04,105.77 193.43,105.23 193.82,104.7 194.21,104.17 194.59,103.65 194.98,103.13 195.37,102.61 195.76,102.11 196.14,101.61 196.53,101.13 196.92,100.65 197.31,100.19 197.69,99.74 198.08,99.29 198.47,98.87 198.86,98.45 199.24,98.04 199.63,97.64 200.02,97.25 200.41,96.87 200.79,96.5 201.18,96.13 201.57,95.77 201.96,95.42 202.34,95.06 202.73,94.71 203.12,94.37 203.51,94.02 203.89,93.68 204.28,93.33 204.67,92.99 205.06,92.64 205.44,92.29 205.83,91.94 206.22,91.59 206.61,91.24 206.99,90.89 207.38,90.54 207.77,90.19 208.16,89.83 208.54,89.48 208.93,89.13 209.32,88.78 209.71,88.44 210.09,88.1 210.48,87.76 210.87,87.42 211.26,87.09 211.64,86.77 212.03,86.45 212.42,86.14 212.81,85.83 213.19,85.52 213.58,85.23 213.97,84.94 214.36,84.65 214.74,84.37 215.13,84.09 215.52,83.82 215.91,83.56 216.29,83.29 216.68,83.03 217.07,82.78 217.46,82.52 217.84,82.27 218.23,82.02 218.62,81.77 219.01,81.52 219.39,81.27 219.78,81.03 220.17,80.77 220.56,80.52 220.94,80.27 221.33,80.01 221.72,79.75 222.11,79.49 222.49,79.22 222.88,78.95 223.27,78.68 223.66,78.4 224.04,78.12 224.43,77.83 224.82,77.54 225.21,77.25 225.59,76.96 225.98,76.66 226.37,76.37 226.76,76.07 227.14,75.77 227.53,75.47 227.92,75.17 228.31,74.87 228.69,74.58 229.08,74.29 229.47,74 229.86,73.71 230.24,73.43 230.63,73.15 231.02,72.88 231.41,72.61 231.79,72.35 232.18,72.09 232.57,71.84 232.96,71.59 233.34,71.34 233.73,71.1 234.12,70.86 234.51,70.62 234.89,70.38 235.28,70.14 235.67,69.9 236.06,69.65 236.44,69.4 236.83,69.15 237.22,68.89 237.61,68.62 237.99,68.34 238.38,68.05 238.77,67.75 239.16,67.44 239.54,67.12 239.93,66.79 240.32,66.44 240.71,66.08 241.09,65.7 241.48,65.32 241.87,64.93 242.26,64.52 242.64,64.1 243.03,63.68 243.42,63.25 243.81,62.81 244.19,62.37 244.58,61.93 244.97,61.49 245.36,61.05 245.74,60.61 246.13,60.18 246.52,59.76 246.91,59.35 247.29,58.95 247.68,58.56 248.07,58.19 248.46,57.83 248.84,57.49 249.23,57.16 249.62,56.86 250.01,56.57 250.39,56.3 250.78,56.05 251.17,55.82 251.56,55.61 251.94,55.42 252.33,55.24 252.72,55.08 253.11,54.93 253.49,54.8 253.88,54.68 254.27,54.58 254.66,54.49 255.04,54.41 255.43,54.34 255.82,54.28 256.21,54.23 256.59,54.18 256.98,54.14 257.37,54.11 257.76,54.08 258.15,54.06 258.53,54.04 258.92,54.02 259.31,54.01 259.7,54 260.08,53.99 260.47,53.98 260.86,53.98 261.25,53.97 261.63,53.97" stroke-dasharray="none" stroke="rgb(31,120,180)" stroke-width="0.75" opacity="1" stroke-opacity="1" fill="none"/>
          </g>
          <g id="Fig:densplot_01.xyplot.lines.group.8.panel.1.1.1">
            <polyline id="Fig:densplot_01.xyplot.lines.group.8.panel.1.1.1.1" points="61.71,54.3 62.1,54.39 62.49,54.51 62.88,54.65 63.28,54.83 63.67,55.05 64.06,55.31 64.45,55.62 64.84,55.99 65.23,56.44 65.62,56.98 66.02,57.61 66.41,58.35 66.8,59.19 67.19,60.17 67.58,61.33 67.97,62.65 68.36,64.14 68.76,65.81 69.15,67.69 69.54,69.8 69.93,72.17 70.32,74.78 70.71,77.63 71.1,80.73 71.5,84.08 71.89,87.73 72.28,91.65 72.67,95.81 73.06,100.2 73.45,104.8 73.84,109.61 74.24,114.63 74.63,119.8 75.02,125.09 75.41,130.46 75.8,135.88 76.19,141.33 76.58,146.74 76.98,152.09 77.37,157.33 77.76,162.43 78.15,167.36 78.54,172.07 78.93,176.49 79.32,180.65 79.72,184.51 80.11,188.07 80.5,191.3 80.89,194.15 81.28,196.62 81.67,198.76 82.06,200.57 82.46,202.05 82.85,203.22 83.24,204.02 83.63,204.53 84.02,204.79 84.41,204.81 84.8,204.62 85.2,204.23 85.59,203.63 85.98,202.89 86.37,202.03 86.76,201.07 87.15,200.03 87.54,198.92 87.94,197.75 88.33,196.55 88.72,195.33 89.11,194.11 89.5,192.88 89.89,191.65 90.28,190.44 90.67,189.25 91.07,188.07 91.46,186.92 91.85,185.78 92.24,184.68 92.63,183.6 93.02,182.54 93.41,181.5 93.81,180.49 94.2,179.49 94.59,178.52 94.98,177.57 95.37,176.64 95.76,175.73 96.15,174.83 96.55,173.95 96.94,173.09 97.33,172.24 97.72,171.41 98.11,170.59 98.5,169.79 98.89,168.99 99.29,168.21 99.68,167.45 100.07,166.69 100.46,165.93 100.85,165.19 101.24,164.45 101.63,163.72 102.03,163 102.42,162.27 102.81,161.55 103.2,160.83 103.59,160.11 103.98,159.38 104.37,158.66 104.77,157.94 105.16,157.21 105.55,156.48 105.94,155.75 106.33,155.02 106.72,154.29 107.11,153.55 107.51,152.82 107.9,152.09 108.29,151.36 108.68,150.63 109.07,149.9 109.46,149.19 109.85,148.48 110.25,147.78 110.64,147.09 111.03,146.41 111.42,145.75 111.81,145.1 112.2,144.47 112.59,143.86 112.99,143.28 113.38,142.71 113.77,142.17 114.16,141.65 114.55,141.16 114.94,140.7 115.33,140.26 115.73,139.85 116.12,139.46 116.51,139.1 116.9,138.77 117.29,138.45 117.68,138.16 118.07,137.89 118.47,137.63 118.86,137.39 119.25,137.17 119.64,136.96 120.03,136.75 120.42,136.56 120.81,136.36 121.21,136.18 121.6,135.99 121.99,135.81 122.38,135.63 122.77,135.45 123.16,135.28 123.55,135.1 123.95,134.92 124.34,134.75 124.73,134.58 125.12,134.41 125.51,134.25 125.9,134.09 126.29,133.95 126.69,133.82 127.08,133.69 127.47,133.58 127.86,133.49 128.25,133.41 128.64,133.35 129.03,133.3 129.43,133.28 129.82,133.27 130.21,133.28 130.6,133.31 130.99,133.36 131.38,133.43 131.77,133.51 132.17,133.61 132.56,133.73 132.95,133.86 133.34,134 133.73,134.16 134.12,134.33 134.51,134.5 134.91,134.68 135.3,134.87 135.69,135.07 136.08,135.26 136.47,135.46 136.86,135.66 137.25,135.86 137.64,136.05 138.04,136.25 138.43,136.43 138.82,136.62 139.21,136.79 139.6,136.96 139.99,137.13 140.38,137.28 140.78,137.43 141.17,137.57 141.56,137.7 141.95,137.82 142.34,137.93 142.73,138.04 143.12,138.13 143.52,138.22 143.91,138.3 144.3,138.37 144.69,138.44 145.08,138.49 145.47,138.54 145.86,138.58 146.26,138.62 146.65,138.65 147.04,138.67 147.43,138.68 147.82,138.69 148.21,138.69 148.6,138.68 149,138.67 149.39,138.64 149.78,138.61 150.17,138.57 150.56,138.52 150.95,138.45 151.34,138.38 151.74,138.29 152.13,138.19 152.52,138.08 152.91,137.96 153.3,137.82 153.69,137.66 154.08,137.49 154.48,137.31 154.87,137.11 155.26,136.9 155.65,136.68 156.04,136.44 156.43,136.19 156.82,135.93 157.22,135.66 157.61,135.37 158,135.09 158.39,134.79 158.78,134.49 159.17,134.19 159.56,133.89 159.96,133.58 160.35,133.28 160.74,132.98 161.13,132.68 161.52,132.39 161.91,132.1 162.3,131.82 162.7,131.55 163.09,131.28 163.48,131.03 163.87,130.78 164.26,130.54 164.65,130.32 165.04,130.1 165.44,129.88 165.83,129.68 166.22,129.48 166.61,129.29 167,129.1 167.39,128.92 167.78,128.74 168.18,128.56 168.57,128.39 168.96,128.22 169.35,128.04 169.74,127.87 170.13,127.69 170.52,127.51 170.92,127.33 171.31,127.14 171.7,126.95 172.09,126.76 172.48,126.56 172.87,126.35 173.26,126.14 173.66,125.93 174.05,125.7 174.44,125.47 174.83,125.24 175.22,124.99 175.61,124.74 176,124.48 176.4,124.21 176.79,123.94 177.18,123.65 177.57,123.35 177.96,123.05 178.35,122.73 178.74,122.41 179.14,122.07 179.53,121.72 179.92,121.36 180.31,120.99 180.7,120.61 181.09,120.21 181.48,119.81 181.88,119.39 182.27,118.96 182.66,118.53 183.05,118.08 183.44,117.62 183.83,117.16 184.22,116.68 184.61,116.2 185.01,115.71 185.4,115.22 185.79,114.72 186.18,114.22 186.57,113.72 186.96,113.21 187.35,112.7 187.75,112.19 188.14,111.68 188.53,111.18 188.92,110.67 189.31,110.17 189.7,109.68 190.09,109.18 190.49,108.7 190.88,108.21 191.27,107.74 191.66,107.27 192.05,106.81 192.44,106.36 192.83,105.91 193.23,105.47 193.62,105.04 194.01,104.61 194.4,104.19 194.79,103.78 195.18,103.37 195.57,102.96 195.97,102.56 196.36,102.17 196.75,101.77 197.14,101.38 197.53,100.99 197.92,100.59 198.31,100.2 198.71,99.81 199.1,99.41 199.49,99.02 199.88,98.62 200.27,98.22 200.66,97.81 201.05,97.4 201.45,96.99 201.84,96.58 202.23,96.17 202.62,95.75 203.01,95.33 203.4,94.91 203.79,94.49 204.19,94.07 204.58,93.65 204.97,93.23 205.36,92.81 205.75,92.4 206.14,91.99 206.53,91.58 206.93,91.18 207.32,90.78 207.71,90.39 208.1,90.01 208.49,89.63 208.88,89.26 209.27,88.9 209.67,88.54 210.06,88.19 210.45,87.85 210.84,87.52 211.23,87.2 211.62,86.88 212.01,86.58 212.41,86.28 212.8,85.98 213.19,85.7 213.58,85.41 213.97,85.14 214.36,84.87 214.75,84.61 215.15,84.35 215.54,84.09 215.93,83.84 216.32,83.59 216.71,83.34 217.1,83.09 217.49,82.84 217.89,82.59 218.28,82.34 218.67,82.09 219.06,81.84 219.45,81.59 219.84,81.33 220.23,81.07 220.63,80.81 221.02,80.54 221.41,80.27 221.8,79.99 222.19,79.71 222.58,79.43 222.97,79.14 223.37,78.85 223.76,78.55 224.15,78.25 224.54,77.94 224.93,77.63 225.32,77.32 225.71,77 226.11,76.69 226.5,76.37 226.89,76.05 227.28,75.73 227.67,75.41 228.06,75.08 228.45,74.76 228.85,74.44 229.24,74.13 229.63,73.81 230.02,73.5 230.41,73.19 230.8,72.89 231.19,72.59 231.58,72.29 231.98,72 232.37,71.71 232.76,71.42 233.15,71.14 233.54,70.86 233.93,70.59 234.32,70.32 234.72,70.05 235.11,69.78 235.5,69.52 235.89,69.25 236.28,68.98 236.67,68.72 237.06,68.45 237.46,68.17 237.85,67.89 238.24,67.61 238.63,67.32 239.02,67.02 239.41,66.72 239.8,66.41 240.2,66.09 240.59,65.76 240.98,65.42 241.37,65.07 241.76,64.71 242.15,64.34 242.54,63.97 242.94,63.58 243.33,63.19 243.72,62.79 244.11,62.39 244.5,61.98 244.89,61.57 245.28,61.16 245.68,60.75 246.07,60.34 246.46,59.94 246.85,59.54 247.24,59.15 247.63,58.77 248.02,58.41 248.42,58.05 248.81,57.71 249.2,57.38 249.59,57.07 249.98,56.78 250.37,56.5 250.76,56.24 251.16,56 251.55,55.77 251.94,55.56 252.33,55.38 252.72,55.2 253.11,55.05 253.5,54.9 253.9,54.78 254.29,54.66 254.68,54.56 255.07,54.47 255.46,54.4 255.85,54.33 256.24,54.27 256.64,54.22 257.03,54.17 257.42,54.14 257.81,54.1 258.2,54.08 258.59,54.05 258.98,54.03 259.38,54.02 259.77,54.01 260.16,54 260.55,53.99 260.94,53.98 261.33,53.97 261.72,53.97" stroke-dasharray="none" stroke="rgb(31,120,180)" stroke-width="0.75" opacity="1" stroke-opacity="1" fill="none"/>
          </g>
          <g id="Fig:densplot_01.xyplot.lines.group.9.panel.1.1.1">
            <polyline id="Fig:densplot_01.xyplot.lines.group.9.panel.1.1.1.1" points="62.56,54.35 62.95,54.45 63.34,54.58 63.73,54.75 64.12,54.95 64.51,55.2 64.9,55.49 65.29,55.85 65.67,56.26 66.06,56.77 66.45,57.38 66.84,58.09 67.23,58.92 67.62,59.87 68.01,60.96 68.4,62.26 68.79,63.73 69.18,65.39 69.57,67.26 69.96,69.35 70.35,71.68 70.74,74.31 71.13,77.2 71.51,80.35 71.9,83.76 72.29,87.45 72.68,91.44 73.07,95.73 73.46,100.26 73.85,105.04 74.24,110.04 74.63,115.24 75.02,120.65 75.41,126.2 75.8,131.86 76.19,137.58 76.58,143.34 76.97,149.1 77.36,154.79 77.74,160.37 78.13,165.82 78.52,171.09 78.91,176.14 79.3,180.94 79.69,185.39 80.08,189.53 80.47,193.33 80.86,196.79 81.25,199.89 81.64,202.55 82.03,204.81 82.42,206.7 82.81,208.22 83.2,209.4 83.59,210.24 83.97,210.7 84.36,210.86 84.75,210.76 85.14,210.42 85.53,209.86 85.92,209.1 86.31,208.15 86.7,207.06 87.09,205.86 87.48,204.58 87.87,203.22 88.26,201.8 88.65,200.34 89.04,198.87 89.43,197.39 89.81,195.91 90.2,194.45 90.59,193 90.98,191.57 91.37,190.17 91.76,188.8 92.15,187.46 92.54,186.15 92.93,184.88 93.32,183.63 93.71,182.42 94.1,181.23 94.49,180.07 94.88,178.94 95.27,177.84 95.66,176.77 96.04,175.71 96.43,174.68 96.82,173.67 97.21,172.69 97.6,171.72 97.99,170.78 98.38,169.85 98.77,168.95 99.16,168.05 99.55,167.18 99.94,166.32 100.33,165.47 100.72,164.64 101.11,163.82 101.5,163 101.88,162.2 102.27,161.41 102.66,160.62 103.05,159.84 103.44,159.06 103.83,158.29 104.22,157.53 104.61,156.76 105,156.01 105.39,155.25 105.78,154.5 106.17,153.76 106.56,153.02 106.95,152.29 107.34,151.57 107.73,150.85 108.11,150.15 108.5,149.46 108.89,148.78 109.28,148.11 109.67,147.46 110.06,146.82 110.45,146.2 110.84,145.6 111.23,145.01 111.62,144.45 112.01,143.9 112.4,143.36 112.79,142.85 113.18,142.36 113.57,141.88 113.96,141.42 114.34,140.98 114.73,140.56 115.12,140.15 115.51,139.76 115.9,139.39 116.29,139.03 116.68,138.69 117.07,138.36 117.46,138.04 117.85,137.75 118.24,137.46 118.63,137.2 119.02,136.94 119.41,136.71 119.8,136.49 120.18,136.29 120.57,136.1 120.96,135.93 121.35,135.77 121.74,135.64 122.13,135.52 122.52,135.41 122.91,135.32 123.3,135.25 123.69,135.18 124.08,135.13 124.47,135.09 124.86,135.07 125.25,135.05 125.64,135.03 126.03,135.03 126.41,135.03 126.8,135.03 127.19,135.03 127.58,135.04 127.97,135.04 128.36,135.05 128.75,135.05 129.14,135.05 129.53,135.05 129.92,135.05 130.31,135.05 130.7,135.04 131.09,135.04 131.48,135.04 131.87,135.04 132.25,135.04 132.64,135.05 133.03,135.07 133.42,135.09 133.81,135.12 134.2,135.16 134.59,135.2 134.98,135.26 135.37,135.33 135.76,135.41 136.15,135.5 136.54,135.61 136.93,135.72 137.32,135.85 137.71,135.99 138.1,136.14 138.48,136.29 138.87,136.46 139.26,136.63 139.65,136.81 140.04,136.99 140.43,137.18 140.82,137.36 141.21,137.55 141.6,137.74 141.99,137.92 142.38,138.11 142.77,138.28 143.16,138.46 143.55,138.62 143.94,138.78 144.33,138.93 144.71,139.07 145.1,139.2 145.49,139.32 145.88,139.43 146.27,139.53 146.66,139.61 147.05,139.67 147.44,139.72 147.83,139.75 148.22,139.77 148.61,139.76 149,139.73 149.39,139.68 149.78,139.61 150.17,139.52 150.55,139.41 150.94,139.27 151.33,139.1 151.72,138.9 152.11,138.69 152.5,138.45 152.89,138.18 153.28,137.9 153.67,137.59 154.06,137.26 154.45,136.92 154.84,136.56 155.23,136.2 155.62,135.82 156.01,135.44 156.4,135.07 156.78,134.69 157.17,134.32 157.56,133.96 157.95,133.62 158.34,133.29 158.73,132.99 159.12,132.7 159.51,132.43 159.9,132.19 160.29,131.99 160.68,131.8 161.07,131.64 161.46,131.51 161.85,131.4 162.24,131.31 162.62,131.25 163.01,131.2 163.4,131.17 163.79,131.16 164.18,131.15 164.57,131.15 164.96,131.15 165.35,131.16 165.74,131.16 166.13,131.15 166.52,131.14 166.91,131.11 167.3,131.07 167.69,131.01 168.08,130.94 168.47,130.85 168.85,130.73 169.24,130.6 169.63,130.44 170.02,130.26 170.41,130.07 170.8,129.85 171.19,129.61 171.58,129.35 171.97,129.08 172.36,128.78 172.75,128.47 173.14,128.15 173.53,127.81 173.92,127.46 174.31,127.1 174.7,126.73 175.08,126.34 175.47,125.95 175.86,125.55 176.25,125.15 176.64,124.73 177.03,124.31 177.42,123.89 177.81,123.46 178.2,123.03 178.59,122.6 178.98,122.16 179.37,121.73 179.76,121.29 180.15,120.85 180.54,120.41 180.92,119.97 181.31,119.53 181.7,119.09 182.09,118.65 182.48,118.21 182.87,117.77 183.26,117.33 183.65,116.89 184.04,116.45 184.43,116.01 184.82,115.57 185.21,115.13 185.6,114.68 185.99,114.24 186.38,113.79 186.77,113.33 187.15,112.87 187.54,112.41 187.93,111.94 188.32,111.47 188.71,110.99 189.1,110.51 189.49,110.03 189.88,109.54 190.27,109.05 190.66,108.55 191.05,108.06 191.44,107.56 191.83,107.06 192.22,106.57 192.61,106.07 192.99,105.58 193.38,105.09 193.77,104.6 194.16,104.12 194.55,103.64 194.94,103.17 195.33,102.7 195.72,102.24 196.11,101.78 196.5,101.34 196.89,100.89 197.28,100.46 197.67,100.03 198.06,99.61 198.45,99.19 198.84,98.78 199.22,98.38 199.61,97.97 200,97.58 200.39,97.18 200.78,96.79 201.17,96.41 201.56,96.02 201.95,95.64 202.34,95.26 202.73,94.88 203.12,94.5 203.51,94.12 203.9,93.74 204.29,93.36 204.68,92.98 205.07,92.6 205.45,92.22 205.84,91.84 206.23,91.46 206.62,91.08 207.01,90.7 207.4,90.32 207.79,89.95 208.18,89.57 208.57,89.19 208.96,88.82 209.35,88.45 209.74,88.09 210.13,87.72 210.52,87.37 210.91,87.01 211.29,86.67 211.68,86.33 212.07,85.99 212.46,85.66 212.85,85.34 213.24,85.02 213.63,84.71 214.02,84.4 214.41,84.1 214.8,83.81 215.19,83.52 215.58,83.23 215.97,82.94 216.36,82.66 216.75,82.38 217.14,82.11 217.52,81.83 217.91,81.55 218.3,81.27 218.69,81 219.08,80.72 219.47,80.44 219.86,80.16 220.25,79.88 220.64,79.59 221.03,79.31 221.42,79.02 221.81,78.73 222.2,78.44 222.59,78.15 222.98,77.86 223.36,77.57 223.75,77.27 224.14,76.98 224.53,76.69 224.92,76.4 225.31,76.1 225.7,75.81 226.09,75.52 226.48,75.23 226.87,74.94 227.26,74.65 227.65,74.37 228.04,74.09 228.43,73.81 228.82,73.53 229.21,73.25 229.59,72.98 229.98,72.71 230.37,72.44 230.76,72.18 231.15,71.92 231.54,71.67 231.93,71.42 232.32,71.18 232.71,70.94 233.1,70.7 233.49,70.46 233.88,70.23 234.27,70.01 234.66,69.78 235.05,69.55 235.44,69.33 235.82,69.1 236.21,68.87 236.6,68.63 236.99,68.39 237.38,68.15 237.77,67.9 238.16,67.64 238.55,67.37 238.94,67.09 239.33,66.79 239.72,66.49 240.11,66.18 240.5,65.85 240.89,65.5 241.28,65.15 241.66,64.78 242.05,64.4 242.44,64.01 242.83,63.61 243.22,63.2 243.61,62.78 244,62.36 244.39,61.94 244.78,61.51 245.17,61.08 245.56,60.65 245.95,60.23 246.34,59.82 246.73,59.41 247.12,59.01 247.51,58.63 247.89,58.26 248.28,57.9 248.67,57.56 249.06,57.23 249.45,56.92 249.84,56.63 250.23,56.36 250.62,56.11 251.01,55.87 251.4,55.65 251.79,55.45 252.18,55.27 252.57,55.11 252.96,54.96 253.35,54.83 253.73,54.71 254.12,54.6 254.51,54.51 254.9,54.43 255.29,54.35 255.68,54.29 256.07,54.24 256.46,54.19 256.85,54.15 257.24,54.12 257.63,54.09 258.02,54.06 258.41,54.04 258.8,54.02 259.19,54.01 259.58,54 259.96,53.99 260.35,53.98 260.74,53.98 261.13,53.97 261.52,53.97" stroke-dasharray="none" stroke="rgb(31,120,180)" stroke-width="0.75" opacity="1" stroke-opacity="1" fill="none"/>
          </g>
          <g id="Fig:densplot_01.xyplot.lines.group.10.panel.1.1.1">
            <polyline id="Fig:densplot_01.xyplot.lines.group.10.panel.1.1.1.1" points="62.44,54.32 62.83,54.42 63.22,54.55 63.61,54.7 64,54.88 64.39,55.11 64.78,55.39 65.17,55.72 65.56,56.11 65.95,56.58 66.34,57.14 66.73,57.8 67.12,58.57 67.51,59.46 67.9,60.49 68.29,61.66 68.68,63.03 69.07,64.58 69.46,66.33 69.85,68.28 70.24,70.45 70.63,72.87 71.02,75.58 71.41,78.53 71.8,81.74 72.19,85.21 72.58,88.93 72.97,92.95 73.36,97.24 73.75,101.77 74.14,106.52 74.53,111.47 74.92,116.6 75.31,121.93 75.7,127.37 76.09,132.9 76.48,138.49 76.87,144.1 77.26,149.69 77.65,155.21 78.04,160.63 78.43,165.9 78.82,171.01 79.21,175.91 79.6,180.55 79.99,184.89 80.38,188.93 80.77,192.65 81.16,196.06 81.55,199.13 81.94,201.8 82.33,204.09 82.72,206.05 83.11,207.68 83.5,208.98 83.89,209.97 84.28,210.6 84.67,210.95 85.06,211.06 85.45,210.94 85.84,210.61 86.23,210.08 86.62,209.36 87.01,208.51 87.4,207.54 87.79,206.47 88.18,205.31 88.57,204.09 88.96,202.81 89.35,201.5 89.74,200.16 90.13,198.81 90.52,197.45 90.91,196.09 91.3,194.74 91.69,193.4 92.08,192.07 92.47,190.76 92.86,189.46 93.25,188.18 93.64,186.93 94.03,185.68 94.42,184.46 94.81,183.24 95.2,182.05 95.59,180.87 95.98,179.7 96.37,178.54 96.76,177.4 97.15,176.26 97.54,175.13 97.93,174.01 98.32,172.9 98.71,171.79 99.1,170.69 99.49,169.59 99.88,168.51 100.27,167.42 100.66,166.35 101.05,165.28 101.44,164.22 101.83,163.17 102.22,162.13 102.61,161.09 103,160.07 103.39,159.06 103.78,158.06 104.17,157.08 104.56,156.11 104.95,155.16 105.34,154.23 105.73,153.31 106.12,152.41 106.51,151.54 106.9,150.69 107.29,149.85 107.68,149.04 108.07,148.26 108.46,147.49 108.85,146.76 109.24,146.05 109.63,145.37 110.02,144.71 110.41,144.08 110.8,143.48 111.19,142.91 111.58,142.36 111.97,141.84 112.36,141.34 112.75,140.87 113.14,140.43 113.53,140.01 113.92,139.62 114.31,139.25 114.7,138.9 115.09,138.57 115.48,138.26 115.87,137.97 116.26,137.7 116.65,137.44 117.04,137.19 117.43,136.95 117.82,136.73 118.21,136.52 118.6,136.32 118.99,136.12 119.38,135.93 119.77,135.75 120.16,135.57 120.55,135.41 120.94,135.24 121.33,135.09 121.72,134.94 122.11,134.79 122.5,134.66 122.89,134.53 123.28,134.41 123.67,134.3 124.06,134.2 124.45,134.11 124.84,134.03 125.23,133.96 125.62,133.91 126.01,133.86 126.4,133.82 126.79,133.8 127.18,133.79 127.57,133.79 127.96,133.8 128.35,133.82 128.74,133.85 129.13,133.88 129.52,133.93 129.91,133.98 130.31,134.04 130.7,134.1 131.09,134.17 131.48,134.24 131.87,134.31 132.26,134.39 132.65,134.47 133.04,134.55 133.43,134.63 133.82,134.71 134.21,134.8 134.6,134.89 134.99,134.98 135.38,135.07 135.77,135.16 136.16,135.27 136.55,135.37 136.94,135.48 137.33,135.59 137.72,135.71 138.11,135.84 138.5,135.97 138.89,136.11 139.28,136.25 139.67,136.39 140.06,136.54 140.45,136.69 140.84,136.84 141.23,137 141.62,137.15 142.01,137.3 142.4,137.44 142.79,137.58 143.18,137.71 143.57,137.83 143.96,137.94 144.35,138.04 144.74,138.12 145.13,138.19 145.52,138.25 145.91,138.29 146.3,138.31 146.69,138.32 147.08,138.31 147.47,138.28 147.86,138.24 148.25,138.18 148.64,138.1 149.03,138.01 149.42,137.9 149.81,137.77 150.2,137.64 150.59,137.49 150.98,137.33 151.37,137.15 151.76,136.97 152.15,136.77 152.54,136.57 152.93,136.36 153.32,136.14 153.71,135.91 154.1,135.68 154.49,135.45 154.88,135.2 155.27,134.96 155.66,134.71 156.05,134.46 156.44,134.21 156.83,133.95 157.22,133.7 157.61,133.45 158,133.2 158.39,132.95 158.78,132.7 159.17,132.46 159.56,132.22 159.95,131.99 160.34,131.76 160.73,131.54 161.12,131.33 161.51,131.12 161.9,130.92 162.29,130.73 162.68,130.55 163.07,130.38 163.46,130.21 163.85,130.05 164.24,129.9 164.63,129.76 165.02,129.62 165.41,129.49 165.8,129.36 166.19,129.24 166.58,129.12 166.97,129.01 167.36,128.9 167.75,128.79 168.14,128.68 168.53,128.57 168.92,128.46 169.31,128.34 169.7,128.22 170.09,128.1 170.48,127.98 170.87,127.84 171.26,127.71 171.65,127.56 172.04,127.41 172.43,127.25 172.82,127.08 173.21,126.9 173.6,126.71 173.99,126.52 174.38,126.31 174.77,126.09 175.16,125.87 175.55,125.63 175.94,125.38 176.33,125.12 176.72,124.85 177.11,124.57 177.5,124.28 177.89,123.98 178.28,123.67 178.67,123.34 179.06,123.01 179.45,122.67 179.84,122.32 180.23,121.96 180.62,121.59 181.01,121.22 181.4,120.83 181.79,120.44 182.18,120.04 182.57,119.63 182.96,119.21 183.35,118.79 183.74,118.35 184.13,117.91 184.52,117.47 184.91,117.01 185.3,116.55 185.69,116.08 186.08,115.6 186.47,115.12 186.86,114.63 187.25,114.14 187.64,113.64 188.03,113.13 188.42,112.63 188.81,112.12 189.2,111.6 189.59,111.09 189.98,110.57 190.37,110.05 190.76,109.53 191.15,109.02 191.54,108.51 191.93,108 192.32,107.49 192.71,106.99 193.1,106.49 193.49,105.99 193.88,105.51 194.27,105.03 194.66,104.55 195.05,104.08 195.44,103.62 195.83,103.16 196.22,102.71 196.61,102.27 197,101.83 197.39,101.4 197.78,100.97 198.17,100.54 198.56,100.12 198.95,99.7 199.34,99.28 199.73,98.87 200.12,98.45 200.51,98.04 200.9,97.62 201.29,97.2 201.68,96.79 202.07,96.37 202.46,95.95 202.85,95.53 203.24,95.11 203.63,94.69 204.02,94.27 204.41,93.85 204.8,93.44 205.19,93.02 205.58,92.61 205.97,92.2 206.36,91.8 206.75,91.4 207.14,91.02 207.53,90.63 207.92,90.26 208.31,89.9 208.7,89.54 209.09,89.19 209.48,88.86 209.87,88.53 210.26,88.21 210.65,87.9 211.04,87.59 211.43,87.3 211.82,87.01 212.21,86.72 212.6,86.44 213,86.17 213.39,85.89 213.78,85.62 214.17,85.35 214.56,85.08 214.95,84.81 215.34,84.54 215.73,84.26 216.12,83.99 216.51,83.71 216.9,83.43 217.29,83.14 217.68,82.85 218.07,82.56 218.46,82.27 218.85,81.97 219.24,81.67 219.63,81.37 220.02,81.07 220.41,80.77 220.8,80.47 221.19,80.17 221.58,79.87 221.97,79.57 222.36,79.27 222.75,78.98 223.14,78.68 223.53,78.39 223.92,78.1 224.31,77.81 224.7,77.53 225.09,77.24 225.48,76.96 225.87,76.68 226.26,76.4 226.65,76.12 227.04,75.84 227.43,75.56 227.82,75.29 228.21,75.01 228.6,74.73 228.99,74.45 229.38,74.16 229.77,73.88 230.16,73.6 230.55,73.31 230.94,73.03 231.33,72.75 231.72,72.46 232.11,72.18 232.5,71.89 232.89,71.61 233.28,71.33 233.67,71.05 234.06,70.77 234.45,70.49 234.84,70.21 235.23,69.94 235.62,69.66 236.01,69.39 236.4,69.11 236.79,68.84 237.18,68.57 237.57,68.29 237.96,68.01 238.35,67.73 238.74,67.44 239.13,67.15 239.52,66.85 239.91,66.54 240.3,66.23 240.69,65.91 241.08,65.58 241.47,65.24 241.86,64.9 242.25,64.54 242.64,64.17 243.03,63.8 243.42,63.41 243.81,63.02 244.2,62.63 244.59,62.22 244.98,61.82 245.37,61.41 245.76,61 246.15,60.59 246.54,60.19 246.93,59.78 247.32,59.39 247.71,59.01 248.1,58.63 248.49,58.27 248.88,57.91 249.27,57.57 249.66,57.25 250.05,56.95 250.44,56.66 250.83,56.39 251.22,56.13 251.61,55.9 252,55.68 252.39,55.48 252.78,55.3 253.17,55.13 253.56,54.98 253.95,54.85 254.34,54.73 254.73,54.62 255.12,54.52 255.51,54.44 255.9,54.36 256.29,54.3 256.68,54.24 257.07,54.2 257.46,54.16 257.85,54.12 258.24,54.09 258.63,54.07 259.02,54.04 259.41,54.03 259.8,54.01 260.19,54 260.58,53.99 260.97,53.98 261.36,53.98 261.75,53.97" stroke-dasharray="none" stroke="rgb(31,120,180)" stroke-width="0.75" opacity="1" stroke-opacity="1" fill="none"/>
          </g>
          <g id="Fig:densplot_01.xyplot.lines.group.11.panel.1.1.1">
            <polyline id="Fig:densplot_01.xyplot.lines.group.11.panel.1.1.1.1" points="61.23,54.27 61.62,54.35 62.02,54.46 62.41,54.59 62.8,54.76 63.19,54.96 63.59,55.2 63.98,55.48 64.37,55.83 64.76,56.26 65.15,56.75 65.55,57.33 65.94,58.01 66.33,58.8 66.72,59.73 67.11,60.8 67.51,62.02 67.9,63.41 68.29,64.96 68.68,66.72 69.08,68.71 69.47,70.92 69.86,73.35 70.25,76 70.64,78.89 71.04,82.04 71.43,85.46 71.82,89.12 72.21,92.99 72.6,97.08 73,101.38 73.39,105.9 73.78,110.58 74.17,115.4 74.56,120.33 74.96,125.34 75.35,130.4 75.74,135.47 76.13,140.52 76.53,145.5 76.92,150.38 77.31,155.15 77.7,159.74 78.09,164.1 78.49,168.24 78.88,172.13 79.27,175.75 79.66,179.1 80.05,182.12 80.45,184.8 80.84,187.18 81.23,189.25 81.62,191.03 82.02,192.52 82.41,193.69 82.8,194.58 83.19,195.24 83.58,195.67 83.98,195.91 84.37,195.97 84.76,195.83 85.15,195.56 85.54,195.19 85.94,194.72 86.33,194.18 86.72,193.58 87.11,192.93 87.5,192.25 87.9,191.56 88.29,190.87 88.68,190.17 89.07,189.48 89.47,188.8 89.86,188.13 90.25,187.47 90.64,186.82 91.03,186.18 91.43,185.55 91.82,184.92 92.21,184.29 92.6,183.65 92.99,183.01 93.39,182.35 93.78,181.68 94.17,180.98 94.56,180.26 94.96,179.52 95.35,178.75 95.74,177.95 96.13,177.11 96.52,176.25 96.92,175.36 97.31,174.44 97.7,173.49 98.09,172.52 98.48,171.51 98.88,170.5 99.27,169.46 99.66,168.41 100.05,167.35 100.45,166.28 100.84,165.21 101.23,164.14 101.62,163.07 102.01,162.02 102.41,160.97 102.8,159.94 103.19,158.93 103.58,157.94 103.97,156.97 104.37,156.03 104.76,155.11 105.15,154.24 105.54,153.39 105.93,152.57 106.33,151.79 106.72,151.04 107.11,150.32 107.5,149.63 107.9,148.98 108.29,148.36 108.68,147.76 109.07,147.18 109.46,146.64 109.86,146.11 110.25,145.61 110.64,145.12 111.03,144.64 111.42,144.18 111.82,143.72 112.21,143.28 112.6,142.84 112.99,142.41 113.39,141.98 113.78,141.55 114.17,141.14 114.56,140.72 114.95,140.31 115.35,139.91 115.74,139.51 116.13,139.12 116.52,138.74 116.91,138.38 117.31,138.03 117.7,137.69 118.09,137.37 118.48,137.07 118.87,136.8 119.27,136.54 119.66,136.31 120.05,136.1 120.44,135.91 120.84,135.75 121.23,135.62 121.62,135.5 122.01,135.41 122.4,135.34 122.8,135.29 123.19,135.26 123.58,135.24 123.97,135.24 124.36,135.25 124.76,135.27 125.15,135.3 125.54,135.34 125.93,135.38 126.33,135.42 126.72,135.47 127.11,135.52 127.5,135.57 127.89,135.61 128.29,135.66 128.68,135.71 129.07,135.75 129.46,135.79 129.85,135.83 130.25,135.87 130.64,135.91 131.03,135.95 131.42,135.99 131.82,136.03 132.21,136.07 132.6,136.11 132.99,136.16 133.38,136.2 133.78,136.25 134.17,136.29 134.56,136.34 134.95,136.39 135.34,136.45 135.74,136.5 136.13,136.56 136.52,136.62 136.91,136.68 137.3,136.74 137.7,136.8 138.09,136.86 138.48,136.93 138.87,136.99 139.27,137.06 139.66,137.13 140.05,137.21 140.44,137.28 140.83,137.36 141.23,137.44 141.62,137.53 142.01,137.61 142.4,137.7 142.79,137.79 143.19,137.88 143.58,137.98 143.97,138.07 144.36,138.16 144.76,138.26 145.15,138.35 145.54,138.43 145.93,138.51 146.32,138.58 146.72,138.65 147.11,138.71 147.5,138.76 147.89,138.79 148.28,138.81 148.68,138.82 149.07,138.82 149.46,138.8 149.85,138.77 150.24,138.72 150.64,138.66 151.03,138.58 151.42,138.49 151.81,138.39 152.21,138.28 152.6,138.15 152.99,138.02 153.38,137.88 153.77,137.73 154.17,137.58 154.56,137.42 154.95,137.26 155.34,137.1 155.73,136.93 156.13,136.77 156.52,136.6 156.91,136.44 157.3,136.28 157.7,136.11 158.09,135.95 158.48,135.79 158.87,135.62 159.26,135.46 159.66,135.29 160.05,135.12 160.44,134.95 160.83,134.77 161.22,134.6 161.62,134.41 162.01,134.22 162.4,134.03 162.79,133.83 163.18,133.63 163.58,133.42 163.97,133.21 164.36,132.99 164.75,132.77 165.15,132.54 165.54,132.31 165.93,132.08 166.32,131.84 166.71,131.6 167.11,131.35 167.5,131.1 167.89,130.85 168.28,130.6 168.67,130.34 169.07,130.08 169.46,129.82 169.85,129.55 170.24,129.28 170.64,129.01 171.03,128.73 171.42,128.45 171.81,128.17 172.2,127.88 172.6,127.59 172.99,127.29 173.38,126.99 173.77,126.69 174.16,126.38 174.56,126.07 174.95,125.76 175.34,125.45 175.73,125.13 176.13,124.81 176.52,124.49 176.91,124.17 177.3,123.85 177.69,123.52 178.09,123.2 178.48,122.88 178.87,122.56 179.26,122.24 179.65,121.92 180.05,121.6 180.44,121.28 180.83,120.96 181.22,120.64 181.61,120.32 182.01,120 182.4,119.67 182.79,119.34 183.18,119.01 183.58,118.68 183.97,118.33 184.36,117.98 184.75,117.63 185.14,117.26 185.54,116.89 185.93,116.51 186.32,116.12 186.71,115.71 187.1,115.3 187.5,114.88 187.89,114.45 188.28,114.01 188.67,113.56 189.07,113.1 189.46,112.63 189.85,112.16 190.24,111.68 190.63,111.2 191.03,110.71 191.42,110.22 191.81,109.73 192.2,109.24 192.59,108.75 192.99,108.26 193.38,107.77 193.77,107.29 194.16,106.81 194.55,106.34 194.95,105.87 195.34,105.4 195.73,104.95 196.12,104.49 196.52,104.05 196.91,103.61 197.3,103.18 197.69,102.75 198.08,102.33 198.48,101.91 198.87,101.5 199.26,101.09 199.65,100.69 200.04,100.28 200.44,99.88 200.83,99.49 201.22,99.09 201.61,98.69 202.01,98.3 202.4,97.9 202.79,97.5 203.18,97.1 203.57,96.7 203.97,96.29 204.36,95.89 204.75,95.48 205.14,95.07 205.53,94.65 205.93,94.24 206.32,93.82 206.71,93.4 207.1,92.97 207.5,92.55 207.89,92.12 208.28,91.69 208.67,91.26 209.06,90.83 209.46,90.4 209.85,89.97 210.24,89.54 210.63,89.11 211.02,88.69 211.42,88.26 211.81,87.84 212.2,87.42 212.59,87.01 212.98,86.6 213.38,86.19 213.77,85.78 214.16,85.38 214.55,84.99 214.95,84.59 215.34,84.21 215.73,83.82 216.12,83.44 216.51,83.07 216.91,82.69 217.3,82.32 217.69,81.96 218.08,81.6 218.47,81.24 218.87,80.88 219.26,80.52 219.65,80.17 220.04,79.82 220.44,79.47 220.83,79.13 221.22,78.79 221.61,78.44 222,78.11 222.4,77.77 222.79,77.44 223.18,77.11 223.57,76.79 223.96,76.46 224.36,76.15 224.75,75.83 225.14,75.52 225.53,75.22 225.92,74.92 226.32,74.63 226.71,74.34 227.1,74.06 227.49,73.78 227.89,73.51 228.28,73.25 228.67,72.99 229.06,72.73 229.45,72.48 229.85,72.24 230.24,72 230.63,71.77 231.02,71.54 231.41,71.31 231.81,71.09 232.2,70.87 232.59,70.66 232.98,70.45 233.38,70.24 233.77,70.03 234.16,69.82 234.55,69.61 234.94,69.4 235.34,69.19 235.73,68.97 236.12,68.75 236.51,68.53 236.9,68.3 237.3,68.06 237.69,67.81 238.08,67.55 238.47,67.28 238.87,67 239.26,66.71 239.65,66.4 240.04,66.09 240.43,65.76 240.83,65.41 241.22,65.05 241.61,64.68 242,64.3 242.39,63.91 242.79,63.51 243.18,63.1 243.57,62.68 243.96,62.26 244.35,61.84 244.75,61.41 245.14,60.98 245.53,60.56 245.92,60.14 246.32,59.73 246.71,59.32 247.1,58.93 247.49,58.54 247.88,58.18 248.28,57.82 248.67,57.48 249.06,57.16 249.45,56.86 249.84,56.57 250.24,56.3 250.63,56.05 251.02,55.82 251.41,55.61 251.81,55.41 252.2,55.24 252.59,55.08 252.98,54.93 253.37,54.8 253.77,54.68 254.16,54.58 254.55,54.49 254.94,54.41 255.33,54.34 255.73,54.28 256.12,54.23 256.51,54.18 256.9,54.14 257.29,54.11 257.69,54.08 258.08,54.06 258.47,54.04 258.86,54.02 259.26,54.01 259.65,54 260.04,53.99 260.43,53.98 260.82,53.97 261.22,53.97 261.61,53.97" stroke-dasharray="none" stroke="rgb(31,120,180)" stroke-width="0.75" opacity="1" stroke-opacity="1" fill="none"/>
          </g>
          <g id="Fig:densplot_01.xyplot.lines.group.12.panel.1.1.1">
            <polyline id="Fig:densplot_01.xyplot.lines.group.12.panel.1.1.1.1" points="62.07,54.33 62.46,54.43 62.85,54.56 63.25,54.71 63.64,54.9 64.03,55.14 64.42,55.42 64.81,55.76 65.2,56.16 65.59,56.64 65.98,57.22 66.37,57.9 66.76,58.69 67.15,59.6 67.54,60.64 67.93,61.87 68.32,63.28 68.71,64.87 69.11,66.65 69.5,68.64 69.89,70.87 70.28,73.38 70.67,76.14 71.06,79.14 71.45,82.41 71.84,85.93 72.23,89.75 72.62,93.85 73.01,98.19 73.4,102.77 73.79,107.55 74.18,112.53 74.57,117.71 74.97,123.04 75.36,128.46 75.75,133.96 76.14,139.48 76.53,145.01 76.92,150.48 77.31,155.85 77.7,161.08 78.09,166.15 78.48,171.02 78.87,175.64 79.26,179.93 79.65,183.91 80.04,187.58 80.44,190.91 80.83,193.9 81.22,196.48 81.61,198.66 82,200.49 82.39,201.97 82.78,203.12 83.17,203.95 83.56,204.43 83.95,204.61 84.34,204.55 84.73,204.26 85.12,203.78 85.51,203.12 85.9,202.28 86.3,201.32 86.69,200.28 87.08,199.16 87.47,197.99 87.86,196.78 88.25,195.55 88.64,194.32 89.03,193.1 89.42,191.9 89.81,190.72 90.2,189.56 90.59,188.45 90.98,187.36 91.37,186.3 91.77,185.28 92.16,184.28 92.55,183.31 92.94,182.36 93.33,181.44 93.72,180.52 94.11,179.62 94.5,178.73 94.89,177.84 95.28,176.95 95.67,176.07 96.06,175.18 96.45,174.29 96.84,173.4 97.23,172.5 97.63,171.6 98.02,170.69 98.41,169.78 98.8,168.87 99.19,167.95 99.58,167.02 99.97,166.1 100.36,165.18 100.75,164.26 101.14,163.34 101.53,162.42 101.92,161.51 102.31,160.6 102.7,159.7 103.09,158.81 103.49,157.92 103.88,157.05 104.27,156.19 104.66,155.34 105.05,154.5 105.44,153.68 105.83,152.87 106.22,152.08 106.61,151.3 107,150.54 107.39,149.8 107.78,149.08 108.17,148.38 108.56,147.71 108.96,147.05 109.35,146.42 109.74,145.81 110.13,145.22 110.52,144.65 110.91,144.11 111.3,143.6 111.69,143.1 112.08,142.63 112.47,142.18 112.86,141.75 113.25,141.35 113.64,140.96 114.03,140.6 114.42,140.25 114.82,139.92 115.21,139.6 115.6,139.3 115.99,139.02 116.38,138.75 116.77,138.49 117.16,138.24 117.55,138 117.94,137.78 118.33,137.56 118.72,137.35 119.11,137.14 119.5,136.95 119.89,136.76 120.29,136.58 120.68,136.41 121.07,136.24 121.46,136.08 121.85,135.93 122.24,135.78 122.63,135.64 123.02,135.51 123.41,135.39 123.8,135.27 124.19,135.16 124.58,135.05 124.97,134.95 125.36,134.86 125.75,134.77 126.15,134.7 126.54,134.62 126.93,134.56 127.32,134.5 127.71,134.45 128.1,134.4 128.49,134.36 128.88,134.33 129.27,134.3 129.66,134.28 130.05,134.27 130.44,134.26 130.83,134.26 131.22,134.27 131.61,134.28 132.01,134.3 132.4,134.33 132.79,134.37 133.18,134.41 133.57,134.46 133.96,134.52 134.35,134.59 134.74,134.66 135.13,134.74 135.52,134.83 135.91,134.93 136.3,135.03 136.69,135.15 137.08,135.26 137.48,135.39 137.87,135.53 138.26,135.66 138.65,135.81 139.04,135.95 139.43,136.1 139.82,136.26 140.21,136.41 140.6,136.56 140.99,136.71 141.38,136.86 141.77,137 142.16,137.14 142.55,137.27 142.94,137.39 143.34,137.5 143.73,137.61 144.12,137.7 144.51,137.78 144.9,137.84 145.29,137.9 145.68,137.94 146.07,137.97 146.46,137.98 146.85,137.98 147.24,137.97 147.63,137.95 148.02,137.92 148.41,137.88 148.81,137.82 149.2,137.76 149.59,137.69 149.98,137.62 150.37,137.53 150.76,137.44 151.15,137.35 151.54,137.26 151.93,137.16 152.32,137.06 152.71,136.95 153.1,136.85 153.49,136.74 153.88,136.64 154.27,136.53 154.67,136.42 155.06,136.31 155.45,136.2 155.84,136.09 156.23,135.97 156.62,135.85 157.01,135.72 157.4,135.59 157.79,135.45 158.18,135.31 158.57,135.16 158.96,135 159.35,134.83 159.74,134.65 160.13,134.47 160.53,134.27 160.92,134.08 161.31,133.87 161.7,133.66 162.09,133.45 162.48,133.24 162.87,133.02 163.26,132.8 163.65,132.59 164.04,132.38 164.43,132.17 164.82,131.96 165.21,131.77 165.6,131.58 166,131.39 166.39,131.21 166.78,131.04 167.17,130.87 167.56,130.71 167.95,130.56 168.34,130.4 168.73,130.25 169.12,130.1 169.51,129.95 169.9,129.79 170.29,129.63 170.68,129.46 171.07,129.29 171.46,129.1 171.86,128.91 172.25,128.7 172.64,128.49 173.03,128.26 173.42,128.01 173.81,127.75 174.2,127.48 174.59,127.2 174.98,126.91 175.37,126.6 175.76,126.28 176.15,125.96 176.54,125.62 176.93,125.28 177.33,124.94 177.72,124.59 178.11,124.24 178.5,123.89 178.89,123.53 179.28,123.18 179.67,122.82 180.06,122.47 180.45,122.12 180.84,121.77 181.23,121.43 181.62,121.08 182.01,120.74 182.4,120.39 182.79,120.04 183.19,119.69 183.58,119.34 183.97,118.98 184.36,118.61 184.75,118.24 185.14,117.86 185.53,117.47 185.92,117.06 186.31,116.65 186.7,116.22 187.09,115.78 187.48,115.32 187.87,114.85 188.26,114.37 188.65,113.87 189.05,113.36 189.44,112.84 189.83,112.31 190.22,111.77 190.61,111.22 191,110.66 191.39,110.1 191.78,109.53 192.17,108.96 192.56,108.4 192.95,107.83 193.34,107.27 193.73,106.72 194.12,106.18 194.52,105.64 194.91,105.12 195.3,104.6 195.69,104.1 196.08,103.61 196.47,103.14 196.86,102.68 197.25,102.24 197.64,101.8 198.03,101.38 198.42,100.98 198.81,100.58 199.2,100.2 199.59,99.82 199.98,99.45 200.38,99.09 200.77,98.74 201.16,98.38 201.55,98.03 201.94,97.69 202.33,97.34 202.72,96.98 203.11,96.63 203.5,96.27 203.89,95.91 204.28,95.54 204.67,95.17 205.06,94.79 205.45,94.41 205.85,94.02 206.24,93.62 206.63,93.22 207.02,92.82 207.41,92.41 207.8,91.99 208.19,91.57 208.58,91.15 208.97,90.72 209.36,90.3 209.75,89.87 210.14,89.44 210.53,89.01 210.92,88.58 211.31,88.16 211.71,87.73 212.1,87.31 212.49,86.89 212.88,86.48 213.27,86.06 213.66,85.66 214.05,85.25 214.44,84.86 214.83,84.46 215.22,84.08 215.61,83.7 216,83.32 216.39,82.95 216.78,82.59 217.17,82.23 217.57,81.88 217.96,81.54 218.35,81.2 218.74,80.87 219.13,80.54 219.52,80.22 219.91,79.91 220.3,79.59 220.69,79.29 221.08,78.99 221.47,78.69 221.86,78.4 222.25,78.11 222.64,77.82 223.04,77.53 223.43,77.25 223.82,76.97 224.21,76.69 224.6,76.41 224.99,76.13 225.38,75.86 225.77,75.58 226.16,75.31 226.55,75.03 226.94,74.76 227.33,74.48 227.72,74.21 228.11,73.94 228.5,73.66 228.9,73.39 229.29,73.12 229.68,72.85 230.07,72.58 230.46,72.31 230.85,72.04 231.24,71.77 231.63,71.5 232.02,71.24 232.41,70.98 232.8,70.72 233.19,70.46 233.58,70.21 233.97,69.95 234.36,69.7 234.76,69.45 235.15,69.19 235.54,68.94 235.93,68.69 236.32,68.44 236.71,68.19 237.1,67.93 237.49,67.67 237.88,67.41 238.27,67.14 238.66,66.87 239.05,66.59 239.44,66.3 239.83,66.01 240.23,65.71 240.62,65.4 241.01,65.07 241.4,64.74 241.79,64.4 242.18,64.05 242.57,63.7 242.96,63.33 243.35,62.96 243.74,62.57 244.13,62.19 244.52,61.8 244.91,61.4 245.3,61 245.69,60.61 246.09,60.21 246.48,59.82 246.87,59.44 247.26,59.06 247.65,58.69 248.04,58.33 248.43,57.99 248.82,57.65 249.21,57.33 249.6,57.02 249.99,56.74 250.38,56.47 250.77,56.21 251.16,55.97 251.56,55.75 251.95,55.55 252.34,55.36 252.73,55.19 253.12,55.04 253.51,54.9 253.9,54.77 254.29,54.66 254.68,54.56 255.07,54.47 255.46,54.39 255.85,54.33 256.24,54.27 256.63,54.22 257.02,54.17 257.42,54.14 257.81,54.1 258.2,54.08 258.59,54.05 258.98,54.03 259.37,54.02 259.76,54.01 260.15,54 260.54,53.99 260.93,53.98 261.32,53.97 261.71,53.97" stroke-dasharray="none" stroke="rgb(31,120,180)" stroke-width="0.75" opacity="1" stroke-opacity="1" fill="none"/>
          </g>
        </g>
        <g id="Fig:densplot_01.panel.1.1.off.vp.2">
          <g id="Fig:densplot_01.border.panel.1.1.1">
            <rect id="Fig:densplot_01.border.panel.1.1.1.1" x="44.8" y="42.19" width="231.2" height="191.81" transform="" stroke="rgb(0,0,0)" stroke-dasharray="none" stroke-width="0.75" opacity="1" fill="none" stroke-opacity="1" fill-opacity="0"/>
          </g>
        </g>
        <g id="Fig:densplot_01..1"/>
      </g>
    </g>
  </g>
</svg>